<svg width="1060" height="229" viewBox="0 0 1060 229" fill="none" xmlns="http://www.w3.org/2000/svg">
<path d="M0.5 0.5H240.5V97.5H0.5V0.5Z" stroke="#131416"/>
<g clip-path="url(#clip0_1_320)">
<path d="M102.67 44.3336L98.3669 41.3916C98.0002 41.1413 97.5614 41.0068 97.1114 41.0068C96.6614 41.0068 96.2226 41.1413 95.8559 41.3916L94.4551 42.3484L92.932 43.3867L91.5531 44.3336C91.2722 44.5261 91.0433 44.78 90.8851 45.0744C90.7269 45.3687 90.6442 45.695 90.6436 46.0262V51.9879C90.6438 52.0647 90.6253 52.1406 90.5896 52.2094C90.5538 52.2782 90.5019 52.338 90.4378 52.3842L88.9443 53.3718L90.3748 54.3471L91.3833 53.6792C91.6641 53.4871 91.8932 53.2334 92.0514 52.9392C92.2095 52.6451 92.2923 52.3189 92.2927 51.9879V46.0262C92.2929 45.9471 92.3126 45.8692 92.3501 45.7988C92.3877 45.7285 92.4421 45.6676 92.5088 45.6212L96.8117 42.6805C96.8991 42.6204 97.0039 42.5881 97.1114 42.5881C97.2189 42.5881 97.3238 42.6204 97.4111 42.6805L98.5341 43.4472L99.9633 44.4225L101.715 45.62C101.783 45.6658 101.838 45.7265 101.875 45.797C101.913 45.8675 101.933 45.9457 101.933 46.025V51.9879C101.933 52.0669 101.913 52.1449 101.875 52.2151C101.837 52.2854 101.783 52.3459 101.715 52.3916L97.4111 55.3212C97.3166 55.3837 97.2035 55.4152 97.0887 55.411C96.974 55.4067 96.8637 55.367 96.7744 55.2977L95.955 54.8039L94.513 55.8027L95.8559 56.615C96.2226 56.8655 96.6614 57.0001 97.1114 57.0001C97.5614 57.0001 98.0003 56.8655 98.3669 56.615L102.67 53.6743C102.95 53.4826 103.179 53.2297 103.337 52.9365C103.495 52.6432 103.578 52.3181 103.579 51.9879V46.0262C103.579 45.6949 103.496 45.3685 103.338 45.0741C103.18 44.7797 102.951 44.5258 102.67 44.3336Z" fill="#131416"/>
<path d="M95.6446 54.6176L97.0262 53.6732C97.3062 53.4814 97.5347 53.2284 97.6928 52.9352C97.8509 52.642 97.9341 52.3169 97.9356 51.9868V46.025C97.9354 45.9478 97.954 45.8717 97.9899 45.8026C98.0259 45.7336 98.0782 45.6736 98.1427 45.6275L99.6323 44.6398L98.2032 43.6645L97.196 44.3312C96.9152 44.5237 96.6864 44.7776 96.5284 45.072C96.3705 45.3664 96.288 45.6927 96.2878 46.0238V51.9868C96.2879 52.0658 96.2682 52.1438 96.2303 52.214C96.1925 52.2843 96.1377 52.3448 96.0704 52.3905L91.7675 55.3201C91.6801 55.3802 91.5753 55.4125 91.4678 55.4125C91.3603 55.4125 91.2555 55.3802 91.1681 55.3201L90.0451 54.5534L88.6185 53.5818L86.8665 52.3843C86.8001 52.3392 86.7458 52.2797 86.708 52.2106C86.6702 52.1415 86.65 52.0648 86.6491 51.9868V46.025C86.6487 45.9459 86.6681 45.8677 86.7057 45.7972C86.7433 45.7268 86.798 45.666 86.8652 45.6201L91.1681 42.6794C91.2635 42.616 91.3778 42.584 91.4938 42.5882C91.6097 42.5924 91.7211 42.6327 91.8113 42.7028L92.6062 43.1855L94.0662 42.1979L92.7284 41.388C92.3618 41.1375 91.923 41.0029 91.4729 41.0029C91.0229 41.0029 90.5841 41.1375 90.2175 41.388L85.9095 44.3324C85.6283 44.5246 85.3991 44.7785 85.2409 45.0729C85.0827 45.3673 85.0001 45.6938 85 46.025V51.9868C85.0002 52.318 85.0829 52.6444 85.2411 52.9388C85.3993 53.2332 85.6284 53.4871 85.9095 53.6793L90.2123 56.6201C90.5789 56.8706 91.0178 57.0052 91.4678 57.0052C91.9178 57.0052 92.3567 56.8706 92.7233 56.6201L94.1936 55.6152L95.6433 54.6275L95.6446 54.6176Z" fill="#131416"/>
<path d="M113.511 42.8804H110.303V44.7038C110.303 44.9096 110.219 45.1073 110.07 45.2548C109.92 45.4024 109.717 45.4882 109.503 45.494L108.648 45.5149V47.9483H110.303V52.3162C110.303 55.0767 111.441 55.9705 116.201 55.673V53.1668C113.78 53.4051 113.593 52.7693 113.593 51.9952V47.9446H116.201V45.4619H113.511V42.8804Z" fill="#131416"/>
<path d="M126.419 41.2207C125.261 41.2207 124.626 41.4676 124.626 42.78C124.626 44.0923 125.259 44.3392 126.419 44.3392C127.56 44.3392 128.156 44.0602 128.156 42.78C128.156 41.4627 127.56 41.2207 126.419 41.2207Z" fill="#131416"/>
<path d="M128.036 45.4619H124.787V55.5903H128.036V45.4619Z" fill="#131416"/>
<path d="M136.395 45.2827C134.76 45.2827 133.726 45.8185 133.229 46.4345V41.5493H130.022V55.5901C130.058 55.5901 130.093 55.5901 130.129 55.5826H130.273C130.632 55.5824 130.984 55.4836 131.286 55.2979C131.589 55.1122 131.83 54.8473 131.98 54.5345V54.5271C132.006 54.474 132.046 54.4282 132.096 54.394C132.146 54.3598 132.203 54.3383 132.264 54.3315C132.325 54.3247 132.386 54.3328 132.443 54.3552C132.5 54.3775 132.549 54.4133 132.587 54.4592C133.202 55.174 134.059 55.6012 135.276 55.7172C135.529 55.7508 135.784 55.7681 136.039 55.7691C137.879 55.7691 139.05 55.0222 139.751 53.9419C139.79 53.8839 139.828 53.8185 139.864 53.7641L139.936 53.6333C139.989 53.537 140.038 53.4394 140.084 53.3382L140.116 53.2641C140.17 53.1407 140.218 53.0172 140.263 52.8938C140.263 52.8802 140.272 52.8666 140.276 52.853C140.321 52.7209 140.362 52.5864 140.397 52.4493C140.397 52.432 140.406 52.4172 140.41 52.4012C140.438 52.2864 140.464 52.1703 140.486 52.0518C140.495 52.0049 140.505 51.958 140.514 51.911C140.523 51.8641 140.524 51.837 140.531 51.7999C140.6 51.3718 140.635 50.9393 140.637 50.5061C140.637 47.9036 139.665 45.2827 136.395 45.2827ZM135.299 53.2061C133.498 53.2061 133.209 52.1147 133.209 50.5061C133.209 48.9567 133.436 47.8246 135.278 47.8246C137.037 47.8246 137.326 48.9357 137.326 50.5061C137.326 52.0938 137.037 53.2061 135.299 53.2061Z" fill="#131416"/>
<path d="M146.762 45.2827C142.913 45.2827 142.002 46.7716 142.002 48.937H145.147C145.147 48.1222 145.519 47.5272 146.844 47.5272C148.251 47.5272 148.707 48.1444 148.707 49.3136L145.933 49.5914C142.975 49.8901 141.588 50.7025 141.588 52.6506C141.588 54.7753 143.492 55.7691 145.974 55.7691C147.581 55.7691 148.645 55.321 149.373 54.4741C149.411 54.4279 149.461 54.3919 149.517 54.3693C149.574 54.3468 149.636 54.3385 149.697 54.3454C149.758 54.3522 149.816 54.3738 149.866 54.4082C149.915 54.4426 149.955 54.4887 149.981 54.542C150.132 54.8548 150.373 55.1197 150.675 55.3054C150.978 55.4911 151.329 55.5899 151.688 55.5901H151.934V49.8506C151.931 47.2284 151.264 45.2827 146.762 45.2827ZM146.633 53.5839C145.453 53.5839 144.961 53.1469 144.961 52.5309C144.961 52.0543 145.354 51.6975 146.633 51.5778L148.703 51.3395C148.683 52.5914 148.083 53.5839 146.633 53.5839Z" fill="#131416"/>
<path d="M157 41.5493H153.772V55.5901H157V41.5493Z" fill="#131416"/>
<path d="M123.684 45.2666C123.579 45.2666 123.483 45.274 123.383 45.2777C122.561 45.2304 121.746 45.4476 121.067 45.895C120.774 46.0764 120.511 46.3 120.289 46.558C120.25 46.6038 120.201 46.6395 120.144 46.6617C120.087 46.6839 120.026 46.692 119.965 46.685C119.904 46.6781 119.846 46.6565 119.796 46.6222C119.746 46.5879 119.707 46.542 119.68 46.4888C119.529 46.1756 119.286 45.9107 118.982 45.7256C118.679 45.5404 118.326 45.4429 117.966 45.4444H117.72V45.4678H117.711V55.5913H120.938V50.4061C120.938 49.0555 121.312 47.7654 123.732 48.0036V45.3024H123.689C123.687 45.2802 123.686 45.2666 123.684 45.2666Z" fill="#131416"/>
</g>
<path d="M546.5 0.5H786.5V97.5H546.5V0.5Z" stroke="#131416"/>
<g clip-path="url(#clip1_1_320)">
<path d="M619.762 54.815L615 43.1855H617.439L620.925 51.8614L624.431 43.1855H626.87L622.084 54.815H619.762Z" fill="#131416"/>
<path d="M628.97 47.9779H636.123C635.916 47.1924 635.455 46.494 634.809 45.9875C634.179 45.4778 633.385 45.2023 632.569 45.2095C631.731 45.1888 630.913 45.4609 630.26 45.9774C629.621 46.4894 629.168 47.1915 628.97 47.9779ZM628.253 53.2589C627.681 52.7079 627.23 52.0485 626.926 51.3206C626.622 50.5928 626.473 49.8118 626.486 49.0254C626.473 48.2376 626.62 47.4551 626.92 46.724C627.219 45.993 627.664 45.328 628.229 44.7683C628.776 44.1962 629.44 43.7432 630.177 43.4386C630.914 43.1341 631.708 42.9847 632.507 43.0001C634.068 42.9825 635.577 43.5525 636.723 44.5931C637.318 45.1243 637.793 45.7717 638.118 46.4938C638.443 47.216 638.611 47.9968 638.61 48.7862C638.612 49.1354 638.589 49.4843 638.542 49.8303H628.97C629.006 50.2404 629.123 50.6395 629.316 51.0047C629.51 51.37 629.774 51.6943 630.095 51.9588C630.765 52.5151 631.62 52.809 632.497 52.784C633.028 52.8028 633.556 52.7086 634.047 52.5081C634.537 52.3075 634.977 52.0053 635.337 51.6221L638.109 51.6456C637.594 52.6465 636.807 53.4881 635.835 54.0773C634.858 54.6857 633.723 55.0049 632.565 54.9967C631.764 55.0119 630.967 54.8656 630.226 54.5666C629.484 54.2677 628.813 53.8226 628.253 53.2589Z" fill="#131416"/>
<path d="M640.185 54.8148V48.7525C640.185 46.8911 640.642 45.4912 641.557 44.5526C642.024 44.0818 642.588 43.713 643.21 43.4704C643.833 43.2279 644.5 43.1169 645.169 43.1448H645.406V45.3576H645.169C643.399 45.3576 642.515 46.4892 642.517 48.7525V54.8148H640.185Z" fill="#131416"/>
<path d="M652.342 45.2092C651.832 45.1935 651.325 45.2827 650.852 45.4712C650.379 45.6597 649.952 45.9434 649.598 46.3038C648.893 47.0303 648.5 47.995 648.5 48.9982C648.5 50.0014 648.893 50.9661 649.598 51.6925C649.947 52.0517 650.369 52.3354 650.836 52.5256C651.303 52.7158 651.806 52.8083 652.311 52.7972C652.812 52.8096 653.31 52.7189 653.772 52.5309C654.235 52.343 654.652 52.062 654.998 51.706C655.69 50.9735 656.075 50.0111 656.075 49.0117C656.075 48.0123 655.69 47.0498 654.998 46.3173C654.653 45.9602 654.236 45.6783 653.773 45.4897C653.31 45.3011 652.812 45.2102 652.311 45.2227L652.342 45.2092ZM647.992 44.7445C648.993 43.7594 650.31 43.1454 651.72 43.0073C653.13 42.8691 654.546 43.2153 655.725 43.9868C656.904 44.7583 657.774 45.9074 658.187 47.2383C658.599 48.5691 658.529 49.9992 657.988 51.285C657.447 52.5707 656.469 53.6324 655.219 54.2891C653.97 54.9458 652.528 55.1569 651.138 54.8863C649.748 54.6158 648.496 53.8804 647.597 52.8054C646.697 51.7305 646.205 50.3826 646.205 48.9914C646.192 48.2013 646.344 47.417 646.651 46.6867C646.959 45.9563 647.415 45.2954 647.992 44.7445Z" fill="#131416"/>
<path d="M670.453 54.815H667.801L664.744 50.6523L661.688 54.815H659.012L663.417 48.7696L659.365 43.1855H661.996L664.72 46.9071L667.492 43.1855H670.124L666.072 48.7696L670.453 54.815Z" fill="#131416"/>
<path d="M673.146 54.778V50.888H671.023V49.5408H673.146V49.1266L673.194 47.7087C673.322 46.2964 673.773 45.1872 674.546 44.3812C675.364 43.557 676.464 43.0601 677.633 42.9868V44.4081C676.858 44.525 676.146 44.8938 675.609 45.4555C675.051 46.0832 674.729 46.8796 674.697 47.712L674.649 49.13V49.5442H678.385V50.8914H674.662V54.7813L673.146 54.778Z" fill="#131416"/>
<path d="M682.305 43.189H680.789V54.8184H682.305V43.189Z" fill="#131416"/>
<path d="M694.22 45.7549C693.8 45.3236 693.294 44.9829 692.733 44.7544C692.172 44.526 691.568 44.4148 690.961 44.4279C690.351 44.4171 689.745 44.5292 689.181 44.7575C688.617 44.9857 688.106 45.3252 687.681 45.7549C686.82 46.6254 686.338 47.7913 686.338 49.0049C686.338 50.2186 686.82 51.3844 687.681 52.255C688.103 52.688 688.61 53.0312 689.173 53.263C689.736 53.4947 690.341 53.6102 690.951 53.6022C691.556 53.6135 692.157 53.5018 692.716 53.274C693.275 53.0462 693.78 52.7073 694.199 52.2786C695.047 51.3982 695.519 50.233 695.519 49.0218C695.519 47.8106 695.047 46.6453 694.199 45.765L694.22 45.7549ZM686.614 44.7445C687.615 43.7594 688.932 43.1454 690.342 43.0073C691.753 42.8691 693.168 43.2153 694.347 43.9868C695.526 44.7583 696.396 45.9074 696.809 47.2383C697.222 48.5691 697.151 49.9992 696.61 51.285C696.069 52.5707 695.091 53.6324 693.841 54.2891C692.592 54.9458 691.15 55.1569 689.76 54.8863C688.37 54.6158 687.118 53.8804 686.219 52.8054C685.319 51.7305 684.827 50.3826 684.827 48.9914C684.814 48.2013 684.966 47.417 685.274 46.6867C685.581 45.9563 686.037 45.2954 686.614 44.7445Z" fill="#131416"/>
<path d="M708.928 45.7549C708.508 45.3236 708.002 44.9829 707.44 44.7544C706.879 44.526 706.276 44.4148 705.668 44.4279C705.058 44.4171 704.453 44.5292 703.888 44.7575C703.324 44.9857 702.814 45.3252 702.389 45.7549C701.527 46.6254 701.046 47.7913 701.046 49.0049C701.046 50.2186 701.527 51.3844 702.389 52.255C702.81 52.6884 703.318 53.0317 703.88 53.2635C704.443 53.4953 705.048 53.6106 705.658 53.6022C706.263 53.6138 706.864 53.5022 707.422 53.2744C707.981 53.0466 708.485 52.7075 708.904 52.2786C709.752 51.3986 710.224 50.2332 710.224 49.0218C710.224 47.8103 709.752 46.6449 708.904 45.765L708.928 45.7549ZM701.325 44.7445C702.326 43.7594 703.643 43.1454 705.053 43.0073C706.463 42.8691 707.879 43.2153 709.058 43.9868C710.237 44.7583 711.107 45.9074 711.52 47.2383C711.933 48.5691 711.862 49.9992 711.321 51.285C710.78 52.5707 709.802 53.6324 708.552 54.2891C707.303 54.9458 705.861 55.1569 704.471 54.8863C703.081 54.6158 701.829 53.8804 700.93 52.8054C700.03 51.7305 699.538 50.3826 699.538 48.9914C699.525 48.2013 699.677 47.4169 699.984 46.6865C700.292 45.9562 700.748 45.2953 701.325 44.7445Z" fill="#131416"/>
<path d="M713.549 54.8147V48.7861C713.549 46.9113 713.987 45.5001 714.863 44.5526C715.313 44.0782 715.862 43.7056 716.474 43.4607C717.085 43.2159 717.744 43.1046 718.403 43.1347C718.518 43.1329 718.633 43.1397 718.746 43.1549V44.5762C718.633 44.5579 718.518 44.55 718.403 44.5526C717.94 44.5338 717.479 44.6208 717.055 44.8066C716.632 44.9924 716.259 45.2721 715.964 45.6236C715.365 46.3354 715.065 47.3895 715.065 48.7861V54.8147H713.549Z" fill="#131416"/>
<path d="M717.45 53.5214H717.707C717.794 53.5303 717.882 53.5114 717.957 53.4675C717.979 53.4508 717.996 53.4292 718.007 53.4046C718.019 53.38 718.024 53.353 718.022 53.3261C718.023 53.2901 718.012 53.2549 717.992 53.225C717.969 53.1947 717.938 53.1714 717.902 53.1577C717.833 53.1407 717.761 53.1339 717.69 53.1374H717.45V53.5214ZM717.237 54.2455V52.9623H717.69C717.805 52.9562 717.921 52.9675 718.033 52.996C718.099 53.0198 718.157 53.0633 718.197 53.1206C718.237 53.176 718.258 53.2417 718.259 53.3092C718.26 53.3549 718.251 53.4003 718.233 53.4425C718.216 53.4848 718.19 53.5231 718.156 53.5551C718.083 53.6256 717.985 53.6664 717.882 53.6696C717.924 53.6856 717.962 53.7096 717.995 53.7403C718.068 53.8177 718.132 53.9024 718.187 53.9929L718.348 54.2455H718.091L717.974 54.0434C717.92 53.9306 717.844 53.8288 717.751 53.7437C717.702 53.7104 717.643 53.6949 717.583 53.6999H717.45V54.2455H717.237ZM717.772 52.5885C717.598 52.5902 717.426 52.6353 717.275 52.7198C717.114 52.803 716.981 52.9306 716.894 53.0869C716.804 53.2382 716.757 53.4102 716.757 53.5854C716.757 53.759 716.803 53.9295 716.89 54.0805C716.978 54.2358 717.109 54.3632 717.268 54.4476C717.421 54.5358 717.595 54.5823 717.772 54.5823C717.949 54.5823 718.123 54.5358 718.276 54.4476C718.435 54.3632 718.566 54.2358 718.654 54.0805C718.738 53.9286 718.783 53.7585 718.784 53.5854C718.784 53.4107 718.738 53.2389 718.65 53.0869C718.562 52.9314 718.43 52.804 718.269 52.7198C718.124 52.6386 717.96 52.5935 717.793 52.5885H717.772ZM717.772 52.3931C717.981 52.3939 718.186 52.446 718.369 52.5447C718.561 52.6463 718.719 52.7994 718.825 52.9859C718.93 53.1692 718.985 53.3754 718.986 53.5854C718.987 53.7935 718.931 53.9981 718.825 54.1781C718.723 54.366 718.566 54.5205 718.376 54.6227C718.191 54.7242 717.983 54.7775 717.772 54.7775C717.561 54.7775 717.353 54.7242 717.168 54.6227C716.982 54.5167 716.83 54.3615 716.729 54.1748C716.623 53.9935 716.566 53.7879 716.566 53.5786C716.566 53.3694 716.623 53.1638 716.729 52.9825C716.836 52.796 716.994 52.643 717.185 52.5413C717.372 52.4421 717.581 52.3911 717.793 52.3931H717.772Z" fill="#131416"/>
</g>
<path d="M0.5 130.5H240.5V227.5H0.5V130.5Z" stroke="#131416"/>
<g clip-path="url(#clip2_1_320)">
<path d="M73.7617 184.815L69 173.186H71.4392L74.9247 181.861L78.4308 173.186H80.87L76.0843 184.815H73.7617Z" fill="#131416"/>
<path d="M82.97 177.978H90.1229C89.9157 177.192 89.4547 176.494 88.809 175.987C88.1785 175.478 87.3854 175.202 86.5687 175.209C85.7308 175.189 84.9125 175.461 84.2599 175.977C83.6205 176.489 83.1678 177.191 82.97 177.978ZM82.253 183.259C81.6812 182.708 81.2296 182.048 80.9258 181.321C80.6221 180.593 80.4725 179.812 80.4862 179.025C80.473 178.238 80.6204 177.455 80.9197 176.724C81.219 175.993 81.6641 175.328 82.229 174.768C82.7764 174.196 83.44 173.743 84.1769 173.439C84.9138 173.134 85.7076 172.985 86.507 173C88.0682 172.982 89.577 173.553 90.7233 174.593C91.3182 175.124 91.7933 175.772 92.1183 176.494C92.4432 177.216 92.6108 177.997 92.6101 178.786C92.6121 179.135 92.5891 179.484 92.5415 179.83H82.97C83.0056 180.24 83.1233 180.639 83.3164 181.005C83.5095 181.37 83.7742 181.694 84.0952 181.959C84.7648 182.515 85.62 182.809 86.4967 182.784C87.0275 182.803 87.5562 182.709 88.0465 182.508C88.5368 182.308 88.9771 182.005 89.3373 181.622L92.1092 181.646C91.5939 182.647 90.8067 183.488 89.8347 184.077C88.8575 184.686 87.7225 185.005 86.5653 184.997C85.7637 185.012 84.9674 184.866 84.2257 184.567C83.4839 184.268 82.8125 183.823 82.253 183.259Z" fill="#131416"/>
<path d="M94.1846 184.815V178.752C94.1846 176.891 94.642 175.491 95.5568 174.553C96.0243 174.082 96.5876 173.713 97.2101 173.47C97.8326 173.228 98.5002 173.117 99.1693 173.145H99.406V175.358H99.1693C97.3991 175.358 96.5151 176.489 96.5174 178.752V184.815H94.1846Z" fill="#131416"/>
<path d="M106.342 175.209C105.832 175.193 105.325 175.283 104.852 175.471C104.379 175.66 103.952 175.943 103.598 176.304C102.893 177.03 102.5 177.995 102.5 178.998C102.5 180.001 102.893 180.966 103.598 181.693C103.947 182.052 104.369 182.335 104.836 182.526C105.303 182.716 105.806 182.808 106.311 182.797C106.812 182.81 107.31 182.719 107.772 182.531C108.235 182.343 108.652 182.062 108.998 181.706C109.69 180.974 110.075 180.011 110.075 179.012C110.075 178.012 109.69 177.05 108.998 176.317C108.653 175.96 108.236 175.678 107.773 175.49C107.31 175.301 106.812 175.21 106.311 175.223L106.342 175.209ZM101.992 174.744C102.993 173.759 104.31 173.145 105.72 173.007C107.13 172.869 108.546 173.215 109.725 173.987C110.904 174.758 111.774 175.907 112.187 177.238C112.6 178.569 112.529 179.999 111.988 181.285C111.447 182.571 110.469 183.632 109.219 184.289C107.97 184.946 106.528 185.157 105.138 184.886C103.748 184.616 102.496 183.88 101.597 182.805C100.697 181.731 100.205 180.383 100.205 178.991C100.192 178.201 100.344 177.417 100.652 176.687C100.959 175.956 101.415 175.295 101.992 174.744Z" fill="#131416"/>
<path d="M124.453 184.815H121.801L118.744 180.652L115.688 184.815H113.012L117.417 178.77L113.365 173.186H115.996L118.72 176.907L121.492 173.186H124.124L120.072 178.77L124.453 184.815Z" fill="#131416"/>
<path d="M127.146 184.778V180.888H125.022V179.541H127.146V179.127L127.194 177.709C127.322 176.296 127.773 175.187 128.546 174.381C129.363 173.557 130.464 173.06 131.633 172.987V174.408C130.858 174.525 130.145 174.894 129.609 175.456C129.051 176.083 128.729 176.88 128.697 177.712L128.649 179.13V179.544H132.385V180.891H128.662V184.781L127.146 184.778Z" fill="#131416"/>
<path d="M136.305 173.189H134.789V184.818H136.305V173.189Z" fill="#131416"/>
<path d="M148.22 175.755C147.8 175.324 147.294 174.983 146.733 174.754C146.172 174.526 145.568 174.415 144.961 174.428C144.351 174.417 143.745 174.529 143.181 174.757C142.617 174.986 142.106 175.325 141.681 175.755C140.82 176.625 140.338 177.791 140.338 179.005C140.338 180.219 140.82 181.384 141.681 182.255C142.103 182.688 142.61 183.031 143.173 183.263C143.736 183.495 144.341 183.61 144.951 183.602C145.556 183.613 146.157 183.502 146.716 183.274C147.275 183.046 147.78 182.707 148.199 182.279C149.047 181.398 149.519 180.233 149.519 179.022C149.519 177.811 149.047 176.645 148.199 175.765L148.22 175.755ZM140.614 174.744C141.615 173.759 142.932 173.145 144.342 173.007C145.753 172.869 147.168 173.215 148.347 173.987C149.526 174.758 150.396 175.907 150.809 177.238C151.222 178.569 151.151 179.999 150.61 181.285C150.069 182.571 149.091 183.632 147.841 184.289C146.592 184.946 145.15 185.157 143.76 184.886C142.37 184.616 141.118 183.88 140.219 182.805C139.319 181.731 138.827 180.383 138.827 178.991C138.814 178.201 138.966 177.417 139.274 176.687C139.581 175.956 140.037 175.295 140.614 174.744Z" fill="#131416"/>
<path d="M162.927 175.755C162.508 175.324 162.001 174.983 161.44 174.754C160.879 174.526 160.276 174.415 159.668 174.428C159.058 174.417 158.453 174.529 157.888 174.757C157.324 174.986 156.814 175.325 156.389 175.755C155.527 176.625 155.046 177.791 155.046 179.005C155.046 180.219 155.527 181.384 156.389 182.255C156.81 182.688 157.318 183.032 157.88 183.264C158.443 183.495 159.048 183.611 159.658 183.602C160.263 183.614 160.864 183.502 161.422 183.274C161.981 183.047 162.485 182.708 162.904 182.279C163.752 181.399 164.224 180.233 164.224 179.022C164.224 177.81 163.752 176.645 162.904 175.765L162.927 175.755ZM155.325 174.744C156.326 173.759 157.643 173.145 159.053 173.007C160.463 172.869 161.879 173.215 163.058 173.987C164.237 174.758 165.107 175.907 165.52 177.238C165.932 178.569 165.862 179.999 165.321 181.285C164.78 182.571 163.802 183.632 162.552 184.289C161.303 184.946 159.861 185.157 158.471 184.886C157.081 184.616 155.829 183.88 154.93 182.805C154.03 181.731 153.538 180.383 153.538 178.991C153.525 178.201 153.677 177.417 153.984 176.687C154.292 175.956 154.748 175.295 155.325 174.744Z" fill="#131416"/>
<path d="M167.549 184.815V178.786C167.549 176.911 167.987 175.5 168.863 174.553C169.313 174.078 169.862 173.706 170.474 173.461C171.085 173.216 171.744 173.105 172.403 173.135C172.518 173.133 172.633 173.14 172.746 173.155V174.576C172.633 174.558 172.518 174.55 172.403 174.553C171.94 174.534 171.479 174.621 171.055 174.807C170.632 174.992 170.259 175.272 169.964 175.624C169.365 176.335 169.065 177.39 169.065 178.786V184.815H167.549Z" fill="#131416"/>
<path d="M171.45 183.521H171.707C171.794 183.53 171.882 183.511 171.957 183.468C171.979 183.451 171.996 183.429 172.007 183.405C172.019 183.38 172.024 183.353 172.022 183.326C172.023 183.29 172.012 183.255 171.992 183.225C171.969 183.195 171.938 183.171 171.902 183.158C171.833 183.141 171.761 183.134 171.69 183.137H171.45V183.521ZM171.237 184.246V182.962H171.69C171.805 182.956 171.921 182.968 172.033 182.996C172.099 183.02 172.157 183.063 172.197 183.121C172.237 183.176 172.258 183.242 172.259 183.309C172.26 183.355 172.251 183.4 172.233 183.443C172.216 183.485 172.19 183.523 172.156 183.555C172.083 183.626 171.985 183.666 171.882 183.67C171.924 183.686 171.962 183.71 171.995 183.74C172.068 183.818 172.132 183.902 172.187 183.993L172.348 184.246H172.091L171.974 184.043C171.92 183.931 171.844 183.829 171.751 183.744C171.702 183.71 171.643 183.695 171.583 183.7H171.45V184.246H171.237ZM171.772 182.588C171.598 182.59 171.426 182.635 171.275 182.72C171.114 182.803 170.981 182.931 170.894 183.087C170.804 183.238 170.757 183.41 170.757 183.585C170.757 183.759 170.803 183.93 170.89 184.081C170.978 184.236 171.109 184.363 171.268 184.448C171.421 184.536 171.595 184.582 171.772 184.582C171.949 184.582 172.123 184.536 172.276 184.448C172.435 184.363 172.566 184.236 172.654 184.081C172.738 183.929 172.783 183.759 172.784 183.585C172.784 183.411 172.738 183.239 172.65 183.087C172.562 182.931 172.43 182.804 172.269 182.72C172.124 182.639 171.96 182.593 171.793 182.588H171.772ZM171.772 182.393C171.981 182.394 172.186 182.446 172.369 182.545C172.561 182.646 172.719 182.799 172.825 182.986C172.93 183.169 172.985 183.375 172.986 183.585C172.987 183.794 172.931 183.998 172.825 184.178C172.723 184.366 172.566 184.521 172.376 184.623C172.191 184.724 171.983 184.778 171.772 184.778C171.561 184.778 171.353 184.724 171.168 184.623C170.982 184.517 170.83 184.362 170.729 184.175C170.623 183.994 170.566 183.788 170.566 183.579C170.566 183.369 170.623 183.164 170.729 182.983C170.836 182.796 170.994 182.643 171.185 182.541C171.372 182.442 171.581 182.391 171.793 182.393H171.772Z" fill="#131416"/>
</g>
<path d="M546.5 130.5H786.5V227.5H546.5V130.5Z" stroke="#131416"/>
<g clip-path="url(#clip3_1_320)">
<path fill-rule="evenodd" clip-rule="evenodd" d="M638.003 171.013L618.129 178.933C618.089 178.949 618.056 178.979 618.034 179.016C618.012 179.05 618 179.09 618 179.131C618 179.171 618.012 179.211 618.034 179.245C618.057 179.28 618.09 179.306 618.129 179.32L624.03 181.453C624.061 181.465 624.096 181.469 624.129 181.464C624.162 181.459 624.194 181.446 624.221 181.426L635.415 173.255C635.418 173.253 635.421 173.253 635.424 173.253C635.427 173.253 635.43 173.253 635.433 173.255C635.439 173.256 635.445 173.26 635.449 173.264C635.45 173.267 635.451 173.27 635.451 173.273C635.451 173.275 635.45 173.278 635.449 173.281C635.451 173.287 635.451 173.293 635.449 173.299L625.54 181.934C625.518 181.954 625.499 181.978 625.487 182.006C625.475 182.034 625.469 182.064 625.47 182.094V186.692C625.469 186.734 625.482 186.775 625.506 186.808C625.531 186.843 625.565 186.869 625.604 186.884C625.644 186.898 625.686 186.899 625.727 186.887C625.767 186.875 625.802 186.851 625.828 186.818L628.688 183.287C628.714 183.255 628.75 183.231 628.79 183.22C628.831 183.207 628.874 183.207 628.915 183.22L632.56 184.544C632.608 184.563 632.662 184.563 632.71 184.544C632.758 184.522 632.795 184.483 632.816 184.436L638.268 171.278C638.283 171.242 638.286 171.202 638.278 171.163C638.271 171.124 638.252 171.088 638.224 171.06C638.197 171.031 638.161 171.012 638.123 171.003C638.084 170.995 638.044 170.998 638.007 171.013" fill="#131416"/>
<path d="M644.285 172.609H642.488L642.514 183.572H644.311L644.285 172.609Z" fill="#131416"/>
<path d="M649.94 175.684C649.032 175.684 648.201 176.011 647.68 176.665V175.847H645.986L646.006 183.571H647.7L647.687 178.457C647.845 178.088 648.109 177.775 648.445 177.557C648.782 177.339 649.175 177.226 649.576 177.233C650.654 177.233 651.271 178.001 651.275 179.221L651.284 183.571H652.978L652.967 178.951C652.967 176.955 651.787 175.69 649.94 175.695" fill="#131416"/>
<path d="M659.974 175.814L657.629 181.227L655.276 175.827H653.398L656.896 183.542H658.39L661.864 175.809L659.974 175.814Z" fill="#131416"/>
<path d="M666.068 175.646C665.081 175.662 664.136 176.046 663.415 176.721C662.694 177.397 662.25 178.317 662.168 179.303C662.086 180.288 662.373 181.269 662.972 182.055C663.572 182.841 664.441 183.375 665.412 183.555C666.383 183.734 667.385 183.546 668.225 183.026C669.065 182.507 669.682 181.693 669.957 180.743C670.232 179.793 670.145 178.775 669.712 177.886C669.28 176.997 668.533 176.301 667.617 175.932C667.125 175.734 666.598 175.637 666.068 175.646ZM666.083 182.103C664.715 182.103 663.756 181.043 663.754 179.668C663.753 178.294 664.698 177.225 666.072 177.214C667.445 177.202 668.384 178.276 668.388 179.65C668.391 181.025 667.439 182.092 666.088 182.095L666.083 182.103Z" fill="#131416"/>
<path d="M673.009 175.777H671.315L671.337 183.5H673.029L673.009 175.777Z" fill="#131416"/>
<path d="M673.009 172.799H671.315V174.366H673.009V172.799Z" fill="#131416"/>
<path d="M678.408 177.19C678.853 177.187 679.29 177.314 679.664 177.554C680.039 177.794 680.336 178.138 680.52 178.544L681.99 177.739C681.646 177.086 681.128 176.542 680.494 176.166C679.859 175.791 679.134 175.599 678.397 175.611C676.094 175.615 674.347 177.354 674.347 179.643C674.347 181.933 676.119 183.654 678.43 183.651C679.166 183.661 679.891 183.466 680.523 183.088C681.156 182.71 681.671 182.163 682.011 181.509L680.532 180.704C680.35 181.111 680.055 181.457 679.681 181.699C679.308 181.942 678.872 182.07 678.426 182.068C677.058 182.068 676.084 181.008 676.081 179.634C676.078 178.259 677.046 177.19 678.417 177.179" fill="#131416"/>
<path d="M686.906 175.592C684.566 175.592 682.885 177.349 682.899 179.62C682.899 181.962 684.587 183.633 686.923 183.628C688.531 183.628 689.74 182.924 690.428 181.828L689.141 180.905C688.742 181.584 688.015 182.081 686.942 182.085C685.665 182.085 684.646 181.255 684.566 179.989L690.609 179.974C690.624 179.728 690.624 179.588 690.624 179.418C690.624 176.934 688.92 175.593 686.905 175.597L686.906 175.592ZM684.636 178.75C684.865 177.604 685.861 177.03 686.849 177.03C687.837 177.03 688.727 177.627 688.915 178.738L684.636 178.75Z" fill="#131416"/>
<path d="M711.99 175.531H711.93C711.403 175.527 710.881 175.628 710.394 175.827C709.907 176.027 709.464 176.322 709.091 176.695C708.719 177.068 708.424 177.511 708.224 178C708.024 178.488 707.923 179.011 707.927 179.538V179.56C707.924 180.088 708.026 180.613 708.227 181.101C708.428 181.59 708.724 182.034 709.099 182.407C709.473 182.78 709.918 183.074 710.407 183.273C710.896 183.471 711.42 183.57 711.948 183.564H711.977C712.505 183.571 713.028 183.473 713.517 183.274C714.006 183.076 714.45 182.781 714.824 182.408C715.197 182.036 715.493 181.592 715.694 181.104C715.895 180.616 715.996 180.092 715.993 179.564V179.538C715.996 179.011 715.895 178.489 715.695 178.002C715.494 177.515 715.2 177.073 714.827 176.701C714.455 176.328 714.013 176.034 713.526 175.834C713.039 175.634 712.518 175.533 711.992 175.537L711.99 175.531ZM711.971 181.994C710.6 181.994 709.645 180.934 709.642 179.561C709.638 178.188 710.591 177.116 711.958 177.107C713.325 177.097 714.27 178.169 714.274 179.543C714.277 180.918 713.325 181.985 711.971 181.988V181.994Z" fill="#131416"/>
<path d="M704.995 175.703V176.413C704.454 175.859 703.653 175.553 702.73 175.554C700.499 175.554 698.885 177.276 698.869 179.442C698.858 179.955 698.951 180.464 699.142 180.94C699.333 181.416 699.617 181.848 699.979 182.21C700.341 182.573 700.772 182.859 701.247 183.05C701.721 183.242 702.23 183.335 702.741 183.325C703.667 183.325 704.466 182.998 705.003 182.424V183.338C705.003 184.541 704.35 185.184 703.465 185.38C701.26 185.776 699.89 185.11 699.89 185.11L699.349 186.498C700.136 186.989 702.578 187.13 703.711 186.879C705.345 186.591 706.703 185.521 706.698 183.353L706.684 175.701L704.995 175.703ZM705.006 180.678C704.788 181.023 704.482 181.306 704.121 181.496C703.759 181.687 703.354 181.778 702.945 181.762C701.608 181.762 700.634 180.764 700.618 179.437C700.61 179.129 700.665 178.822 700.781 178.536C700.894 178.249 701.064 177.988 701.281 177.77C701.498 177.551 701.757 177.379 702.042 177.264C702.327 177.148 702.633 177.092 702.941 177.099C703.347 177.083 703.75 177.172 704.112 177.358C704.473 177.543 704.781 177.819 705.005 178.159L705.006 180.678Z" fill="#131416"/>
<path d="M693.772 181.995L696.082 178.853C696.547 178.243 697.29 177.217 697.429 176.992C698.073 175.927 698.151 174.808 697.592 173.69C697.137 172.781 696.332 172.337 695.34 172.218C693.95 172.041 692.505 172.686 691.852 174.005C691.7 174.292 691.6 174.604 691.558 174.926L693.039 175.253C693.062 175.189 693.083 175.137 693.098 175.089C693.168 174.82 693.298 174.569 693.478 174.357C693.658 174.144 693.883 173.975 694.137 173.861C694.677 173.613 695.453 173.71 695.871 174.072C696.572 174.682 696.562 175.708 696.054 176.362C695.969 176.474 691.585 182.07 691.585 182.07C691.544 182.119 691.522 182.181 691.523 182.245V183.484L698.028 183.467V181.995H693.772Z" fill="#131416"/>
</g>
<path d="M273.5 0.5H513.5V97.5H273.5V0.5Z" stroke="#131416"/>
<g clip-path="url(#clip4_1_320)">
<path d="M345.337 47.08C345.337 45.0898 344.007 43.2819 341.485 43.2673C339.788 43.2673 334.697 43.2505 333 43.2505V54.7706H335.019V50.9264H340.359L343.48 54.7706H345.88V54.6238L342.638 50.6957C344.672 50.251 345.345 48.6572 345.345 47.08H345.337ZM335.027 48.9675V45.2869H341.493C342.761 45.2869 343.326 46.2076 343.326 47.1283C343.326 48.049 342.776 48.9696 341.493 48.9696L335.027 48.9675Z" fill="#131416"/>
<path d="M359.323 43.2547C357.642 43.2547 352.566 43.2715 350.885 43.2715V54.7748H352.902V51.3856H359.323C364.566 51.3856 364.55 43.2505 359.323 43.2505V43.2547ZM359.323 49.3975H352.902V45.3205H359.323C361.89 45.3205 361.905 49.3975 359.323 49.3975Z" fill="#131416"/>
<path d="M396.198 48.8231C397.191 48.345 397.589 47.4914 397.589 46.6022C397.589 44.2952 396.015 43.2676 393.904 43.2676H385.435V54.7709H393.904C396.12 54.7709 397.909 53.9509 397.909 51.386C397.909 50.6624 397.45 49.2321 396.198 48.8231ZM387.421 45.239H393.902C395.188 45.239 395.584 46.1261 395.584 46.6525C395.584 47.3089 395.172 47.8857 393.902 47.8857H387.423L387.421 45.239ZM393.902 52.7513H387.423V49.7921H393.904C394.729 49.7921 395.908 50.3332 395.908 51.3692C395.908 52.4535 394.737 52.7513 393.904 52.7513" fill="#131416"/>
<path d="M404.755 43.2676H402.737V54.773H413.652V52.7659H404.755V43.2676Z" fill="#131416"/>
<path d="M420.498 43.2676H418.495V54.773H420.498V43.2676Z" fill="#131416"/>
<path d="M435.625 51.5934C435.336 51.9022 435.008 52.1649 434.65 52.3736C434.247 52.6035 433.819 52.7782 433.376 52.8937C432.873 53.0234 432.357 53.0868 431.839 53.0825C431.16 53.0945 430.485 52.9839 429.84 52.7553C429.307 52.5624 428.814 52.2596 428.389 51.864C428.007 51.5016 427.705 51.0534 427.503 50.5511C427.306 50.0611 427.204 49.5329 427.205 48.9991C427.203 48.4598 427.305 47.926 427.503 47.4304C427.705 46.9282 428.007 46.4799 428.389 46.1175C428.814 45.7219 429.309 45.4217 429.844 45.2346C430.489 45.0108 431.163 44.9031 431.841 44.9158C432.334 44.9134 432.827 44.9711 433.308 45.0878C433.735 45.1909 434.15 45.3457 434.545 45.5492C434.9 45.7334 435.229 45.9729 435.52 46.2602C435.695 46.4368 435.854 46.6313 435.994 46.8411L437.695 45.8302C437.479 45.4948 437.231 45.1855 436.953 44.9074C436.56 44.5125 436.12 44.1754 435.645 43.905C435.116 43.6068 434.553 43.3827 433.971 43.2381C433.307 43.0752 432.628 42.9957 431.946 43.0011C430.969 42.985 429.996 43.151 429.071 43.4918C428.294 43.7795 427.576 44.2244 426.955 44.8026C426.4 45.3267 425.956 45.972 425.652 46.6952C425.348 47.4185 425.19 48.2032 425.19 48.9971C425.19 49.7909 425.348 50.5756 425.652 51.2989C425.956 52.0222 426.4 52.6674 426.955 53.1915C427.575 53.7706 428.294 54.2156 429.071 54.5023C429.992 54.8438 430.961 55.0119 431.935 54.9993C432.637 55.0055 433.338 54.9203 434.022 54.7456C434.617 54.591 435.191 54.3534 435.728 54.0388C436.213 53.7574 436.658 53.4044 437.051 52.9902C437.336 52.6863 437.588 52.3478 437.8 51.9814L436.091 50.9748C435.958 51.2023 435.802 51.4133 435.625 51.6039" fill="#131416"/>
<path d="M376.903 43.2549C376.676 43.2546 376.452 43.3024 376.242 43.3956C376.032 43.4887 375.842 43.6254 375.681 43.7978C375.521 43.9701 375.394 44.1748 375.307 44.4002C375.22 44.6255 375.175 44.867 375.175 45.1109H378.395V49.081C378.336 49.6086 378.227 50.1284 378.072 50.6329C377.87 51.1352 377.567 51.5834 377.186 51.9458C376.76 52.3419 376.267 52.6447 375.733 52.8371C374.668 53.2907 373.482 53.2907 372.417 52.8371C371.883 52.6447 371.39 52.3419 370.964 51.9458C370.583 51.5834 370.28 51.1352 370.078 50.6329C369.923 50.1284 369.814 49.6086 369.754 49.081V43.2549H367.761V49.081C367.756 49.8747 367.911 50.6601 368.214 51.3839C368.517 52.1077 368.961 52.7529 369.517 53.2754C370.138 53.8524 370.857 54.2953 371.635 54.5799C373.22 55.1331 374.926 55.1331 376.511 54.5799C377.288 54.2932 378.007 53.8482 378.628 53.2691C379.183 52.7466 379.628 52.1014 379.931 51.3776C380.233 50.6538 380.388 49.8684 380.383 49.0747V43.2549H376.903Z" fill="#131416"/>
<path d="M447.502 45.1614L442.789 54.7709H440.782L446.384 43.3389V43.2676H449.361L455 54.7709H452.993L451.795 52.3381H448.204C447.971 52.3381 447.74 52.2887 447.524 52.1927C447.309 52.0967 447.113 51.9559 446.948 51.7785C446.783 51.6011 446.652 51.3905 446.563 51.1587C446.473 50.9269 446.427 50.6784 446.427 50.4275H450.855L448.267 45.1614H447.502Z" fill="#131416"/>
</g>
<path d="M273.5 130.5H513.5V227.5H273.5V130.5Z" stroke="#131416"/>
<g clip-path="url(#clip5_1_320)">
<path d="M375.67 174.334L371.367 171.392C371 171.141 370.561 171.007 370.111 171.007C369.661 171.007 369.223 171.141 368.856 171.392L367.455 172.348L365.932 173.387L364.553 174.334C364.272 174.526 364.043 174.78 363.885 175.074C363.727 175.369 363.644 175.695 363.644 176.026V181.988C363.644 182.065 363.625 182.141 363.59 182.209C363.554 182.278 363.502 182.338 363.438 182.384L361.944 183.372L363.375 184.347L364.383 183.679C364.664 183.487 364.893 183.233 365.051 182.939C365.21 182.645 365.292 182.319 365.293 181.988V176.026C365.293 175.947 365.313 175.869 365.35 175.799C365.388 175.728 365.442 175.668 365.509 175.621L369.812 172.681C369.899 172.62 370.004 172.588 370.111 172.588C370.219 172.588 370.324 172.62 370.411 172.681L371.534 173.447L372.963 174.422L374.715 175.62C374.783 175.666 374.838 175.727 374.875 175.797C374.913 175.867 374.933 175.946 374.933 176.025V181.988C374.933 182.067 374.913 182.145 374.875 182.215C374.837 182.285 374.783 182.346 374.715 182.392L370.411 185.321C370.317 185.384 370.203 185.415 370.089 185.411C369.974 185.407 369.864 185.367 369.774 185.298L368.955 184.804L367.513 185.803L368.856 186.615C369.223 186.866 369.661 187 370.111 187C370.561 187 371 186.866 371.367 186.615L375.67 183.674C375.95 183.483 376.179 183.23 376.337 182.937C376.495 182.643 376.578 182.318 376.579 181.988V176.026C376.579 175.695 376.496 175.368 376.338 175.074C376.18 174.78 375.951 174.526 375.67 174.334Z" fill="#131416"/>
<path d="M368.645 184.618L370.026 183.673C370.306 183.481 370.535 183.228 370.693 182.935C370.851 182.642 370.934 182.317 370.936 181.987V176.025C370.935 175.948 370.954 175.872 370.99 175.803C371.026 175.734 371.078 175.674 371.143 175.628L372.632 174.64L371.203 173.665L370.196 174.331C369.915 174.524 369.686 174.778 369.528 175.072C369.371 175.366 369.288 175.693 369.288 176.024V181.987C369.288 182.066 369.268 182.144 369.23 182.214C369.193 182.284 369.138 182.345 369.07 182.391L364.768 185.32C364.68 185.38 364.575 185.413 364.468 185.413C364.36 185.413 364.255 185.38 364.168 185.32L363.045 184.553L361.619 183.582L359.867 182.384C359.8 182.339 359.746 182.28 359.708 182.211C359.67 182.141 359.65 182.065 359.649 181.987V176.025C359.649 175.946 359.668 175.868 359.706 175.797C359.743 175.727 359.798 175.666 359.865 175.62L364.168 172.679C364.264 172.616 364.378 172.584 364.494 172.588C364.61 172.592 364.721 172.633 364.811 172.703L365.606 173.186L367.066 172.198L365.728 171.388C365.362 171.138 364.923 171.003 364.473 171.003C364.023 171.003 363.584 171.138 363.217 171.388L358.909 174.332C358.628 174.525 358.399 174.778 358.241 175.073C358.083 175.367 358 175.694 358 176.025V181.987C358 182.318 358.083 182.644 358.241 182.939C358.399 183.233 358.628 183.487 358.909 183.679L363.212 186.62C363.579 186.871 364.018 187.005 364.468 187.005C364.918 187.005 365.357 186.871 365.723 186.62L367.194 185.615L368.643 184.627L368.645 184.618Z" fill="#131416"/>
<path d="M386.511 172.88H383.303V174.704C383.303 174.91 383.219 175.107 383.07 175.255C382.92 175.402 382.717 175.488 382.503 175.494L381.648 175.515V177.948H383.303V182.316C383.303 185.077 384.441 185.971 389.201 185.673V183.167C386.78 183.405 386.593 182.769 386.593 181.995V177.945H389.201V175.462H386.511V172.88Z" fill="#131416"/>
<path d="M399.419 171.221C398.261 171.221 397.626 171.468 397.626 172.78C397.626 174.092 398.259 174.339 399.419 174.339C400.56 174.339 401.156 174.06 401.156 172.78C401.156 171.463 400.56 171.221 399.419 171.221Z" fill="#131416"/>
<path d="M401.036 175.462H397.787V185.59H401.036V175.462Z" fill="#131416"/>
<path d="M409.395 175.283C407.76 175.283 406.726 175.818 406.229 176.435V171.549H403.023V185.59C403.059 185.59 403.093 185.59 403.129 185.583H403.273C403.632 185.582 403.984 185.484 404.286 185.298C404.589 185.112 404.83 184.847 404.98 184.535V184.527C405.006 184.474 405.046 184.428 405.096 184.394C405.146 184.36 405.204 184.338 405.264 184.332C405.325 184.325 405.387 184.333 405.443 184.355C405.5 184.377 405.549 184.413 405.588 184.459C406.202 185.174 407.059 185.601 408.276 185.717C408.529 185.751 408.784 185.768 409.039 185.769C410.88 185.769 412.05 185.022 412.751 183.942C412.79 183.884 412.828 183.819 412.864 183.764L412.936 183.633C412.989 183.537 413.038 183.439 413.084 183.338L413.117 183.264C413.171 183.141 413.218 183.017 413.263 182.894C413.263 182.88 413.272 182.867 413.276 182.853C413.321 182.721 413.362 182.586 413.397 182.449C413.397 182.432 413.406 182.417 413.41 182.401C413.438 182.286 413.464 182.17 413.486 182.052C413.495 182.005 413.505 181.958 413.514 181.911C413.523 181.864 413.524 181.837 413.531 181.8C413.6 181.372 413.636 180.939 413.638 180.506C413.638 177.904 412.665 175.283 409.395 175.283ZM408.299 183.206C406.498 183.206 406.209 182.115 406.209 180.506C406.209 178.957 406.437 177.825 408.279 177.825C410.037 177.825 410.326 178.936 410.326 180.506C410.326 182.094 410.037 183.206 408.299 183.206Z" fill="#131416"/>
<path d="M419.762 175.283C415.913 175.283 415.002 176.772 415.002 178.937H418.147C418.147 178.122 418.519 177.527 419.844 177.527C421.251 177.527 421.707 178.144 421.707 179.314L418.933 179.591C415.975 179.89 414.588 180.702 414.588 182.651C414.588 184.775 416.492 185.769 418.974 185.769C420.581 185.769 421.645 185.321 422.373 184.474C422.411 184.428 422.461 184.392 422.517 184.369C422.574 184.347 422.636 184.339 422.697 184.345C422.758 184.352 422.816 184.374 422.866 184.408C422.915 184.443 422.955 184.489 422.981 184.542C423.132 184.855 423.373 185.12 423.675 185.305C423.978 185.491 424.329 185.59 424.688 185.59H424.934V179.851C424.931 177.228 424.264 175.283 419.762 175.283ZM419.633 183.584C418.453 183.584 417.961 183.147 417.961 182.531C417.961 182.054 418.354 181.698 419.633 181.578L421.703 181.34C421.683 182.591 421.083 183.584 419.633 183.584Z" fill="#131416"/>
<path d="M430 171.549H426.773V185.59H430V171.549Z" fill="#131416"/>
<path d="M396.683 175.267C396.579 175.267 396.483 175.274 396.382 175.278C395.561 175.23 394.746 175.448 394.067 175.895C393.774 176.076 393.511 176.3 393.289 176.558C393.25 176.604 393.2 176.639 393.144 176.662C393.087 176.684 393.025 176.692 392.965 176.685C392.904 176.678 392.846 176.657 392.796 176.622C392.746 176.588 392.706 176.542 392.68 176.489C392.528 176.176 392.286 175.911 391.982 175.726C391.678 175.54 391.326 175.443 390.966 175.444H390.72V175.468H390.711V185.591H393.938V180.406C393.938 179.055 394.311 177.765 396.732 178.004V175.302H396.689C396.687 175.28 396.686 175.267 396.683 175.267Z" fill="#131416"/>
</g>
<path d="M819.5 0.5H1059.5V97.5H819.5V0.5Z" stroke="#131416"/>
<g clip-path="url(#clip6_1_320)">
<path fill-rule="evenodd" clip-rule="evenodd" d="M911.003 41.0129L891.129 48.9327C891.089 48.9493 891.056 48.9786 891.034 49.0161C891.012 49.05 891 49.0899 891 49.1307C891 49.1715 891.012 49.2114 891.034 49.2452C891.057 49.2797 891.09 49.306 891.129 49.3205L897.03 51.4526C897.061 51.4653 897.096 51.4692 897.129 51.464C897.162 51.4588 897.194 51.4459 897.221 51.4264L908.415 43.2546C908.418 43.2534 908.421 43.2528 908.424 43.2528C908.427 43.2528 908.43 43.2534 908.433 43.2546C908.439 43.2563 908.445 43.2597 908.449 43.2644C908.45 43.267 908.451 43.2698 908.451 43.2726C908.451 43.2754 908.45 43.2782 908.449 43.2808C908.451 43.2866 908.451 43.293 908.449 43.2988L898.54 51.9337C898.518 51.9536 898.499 51.9781 898.487 52.0057C898.475 52.0335 898.469 52.0637 898.47 52.094V56.6921C898.469 56.7337 898.482 56.7746 898.506 56.8083C898.531 56.8425 898.565 56.8687 898.604 56.8835C898.644 56.8976 898.686 56.8988 898.727 56.887C898.767 56.8753 898.802 56.8512 898.828 56.8181L901.688 53.2869C901.714 53.2546 901.75 53.2312 901.79 53.2198C901.831 53.2067 901.874 53.2067 901.915 53.2198L905.56 54.5436C905.608 54.5632 905.662 54.5632 905.71 54.5436C905.758 54.5218 905.795 54.4834 905.816 54.4356L911.268 41.2779C911.283 41.2416 911.286 41.2017 911.278 41.1634C911.271 41.1243 911.252 41.0882 911.224 41.0603C911.197 41.0315 911.161 41.0115 911.123 41.0031C911.084 40.9946 911.044 40.998 911.007 41.0129" fill="#131416"/>
<path d="M917.285 42.6089H915.488L915.514 53.5723H917.311L917.285 42.6089Z" fill="#131416"/>
<path d="M922.94 45.6836C922.032 45.6836 921.201 46.0109 920.68 46.6654V45.8472H918.986L919.006 53.5707H920.7L920.687 48.4572C920.845 48.0881 921.109 47.7746 921.445 47.5566C921.782 47.3386 922.175 47.226 922.576 47.2332C923.654 47.2332 924.271 48.0006 924.275 49.2213L924.284 53.5707H925.978L925.967 48.9513C925.967 46.955 924.787 45.6901 922.94 45.695" fill="#131416"/>
<path d="M932.974 45.814L930.629 51.227L928.276 45.8271H926.397L929.896 53.5424H931.39L934.864 45.8091L932.974 45.814Z" fill="#131416"/>
<path d="M939.068 45.6461C938.081 45.6625 937.136 46.0457 936.415 46.7215C935.694 47.3972 935.25 48.3171 935.168 49.3027C935.086 50.2883 935.373 51.2692 935.972 52.055C936.572 52.8407 937.441 53.3753 938.412 53.5548C939.383 53.7343 940.385 53.546 941.225 53.0265C942.065 52.507 942.682 51.6933 942.957 50.7434C943.232 49.7935 943.145 48.7751 942.712 47.8861C942.28 46.9971 941.533 46.3008 940.617 45.9325C940.125 45.7341 939.598 45.6368 939.068 45.6461ZM939.083 52.1031C937.715 52.1031 936.756 51.0427 936.754 49.6682C936.753 48.2937 937.698 47.2252 939.072 47.2137C940.445 47.2023 941.384 48.2757 941.388 49.6502C941.391 51.0247 940.439 52.0916 939.088 52.0949L939.083 52.1031Z" fill="#131416"/>
<path d="M946.009 45.7769H944.315L944.337 53.5003H946.029L946.009 45.7769Z" fill="#131416"/>
<path d="M946.009 42.7988H944.315V44.3664H946.009V42.7988Z" fill="#131416"/>
<path d="M951.408 47.1905C951.853 47.1874 952.29 47.3136 952.664 47.5537C953.039 47.7939 953.336 48.1378 953.52 48.5437L954.99 47.7387C954.646 47.0861 954.128 46.5418 953.494 46.1663C952.859 45.7908 952.134 45.5988 951.397 45.6114C949.094 45.6147 947.347 47.3541 947.347 49.6433C947.347 51.9325 949.119 53.6539 951.43 53.6507C952.166 53.6609 952.891 53.4661 953.523 53.0879C954.156 52.7097 954.671 52.163 955.011 51.5087L953.532 50.7037C953.35 51.1111 953.055 51.457 952.681 51.6993C952.308 51.9416 951.872 52.0698 951.426 52.0683C950.058 52.0683 949.084 51.008 949.081 49.6335C949.078 48.259 950.046 47.1905 951.417 47.179" fill="#131416"/>
<path d="M959.906 45.5918C957.566 45.5918 955.885 47.3492 955.899 49.6204C955.899 51.962 957.587 53.6327 959.923 53.6278C961.531 53.6278 962.74 52.9241 963.428 51.8278L962.141 50.905C961.742 51.584 961.015 52.0814 959.942 52.0847C958.665 52.0847 957.646 51.2551 957.566 49.9886L963.609 49.9739C963.624 49.7284 963.624 49.5877 963.624 49.4175C963.624 46.9336 961.92 45.5934 959.905 45.5967L959.906 45.5918ZM957.636 48.7499C957.865 47.6045 958.861 47.0301 959.849 47.0301C960.837 47.0301 961.727 47.6274 961.915 48.7385L957.636 48.7499Z" fill="#131416"/>
<path d="M984.99 45.5309H984.93C984.403 45.5268 983.881 45.6276 983.394 45.8274C982.906 46.0273 982.464 46.3223 982.091 46.6952C981.719 47.0681 981.424 47.5115 981.224 47.9996C981.024 48.4877 980.923 49.0107 980.927 49.5383V49.5595C980.924 50.0883 981.025 50.6125 981.227 51.1014C981.428 51.5903 981.724 52.0341 982.099 52.4069C982.473 52.7797 982.918 53.074 983.407 53.2726C983.896 53.4712 984.42 53.5701 984.948 53.5636H984.977C985.505 53.5709 986.028 53.4725 986.517 53.2741C987.006 53.0757 987.45 52.7814 987.824 52.4084C988.197 52.0358 988.493 51.5924 988.694 51.1042C988.895 50.6159 988.996 50.0925 988.993 49.5644V49.5383C988.996 49.0115 988.895 48.4893 988.695 48.0022C988.494 47.5151 988.199 47.0727 987.827 46.7009C987.455 46.3283 987.013 46.0336 986.526 45.8338C986.039 45.6341 985.518 45.5334 984.992 45.5374L984.99 45.5309ZM984.971 51.9944C983.6 51.9944 982.645 50.934 982.642 49.5612C982.638 48.1883 983.591 47.1165 984.958 47.1067C986.325 47.0969 987.27 48.1686 987.273 49.5432C987.277 50.9177 986.325 51.9846 984.971 51.9878V51.9944Z" fill="#131416"/>
<path d="M977.995 45.7031V46.4133C977.454 45.8586 976.653 45.5526 975.73 45.5542C973.499 45.5542 971.885 47.2756 971.869 49.4421C971.858 49.9547 971.951 50.4641 972.142 50.9399C972.333 51.4155 972.617 51.8477 972.979 52.2104C973.341 52.5731 973.772 52.8588 974.247 53.0503C974.721 53.2419 975.23 53.3353 975.741 53.3251C976.667 53.3251 977.466 52.9978 978.003 52.4235V53.3382C978.003 54.5409 977.35 55.1839 976.465 55.3803C974.26 55.7763 972.89 55.1103 972.89 55.1103L972.349 56.4979C973.136 56.9888 975.578 57.1295 976.711 56.8792C978.345 56.5912 979.703 55.521 979.698 53.3529L979.684 45.7015L977.995 45.7031ZM978.006 50.6775C977.788 51.0234 977.482 51.3057 977.121 51.4961C976.759 51.6865 976.354 51.7783 975.945 51.7624C974.608 51.7624 973.634 50.7643 973.618 49.4372C973.61 49.1286 973.665 48.8216 973.781 48.5356C973.894 48.249 974.064 47.9884 974.281 47.7698C974.498 47.5512 974.757 47.379 975.042 47.2636C975.327 47.1483 975.633 47.0923 975.941 47.0989C976.347 47.0827 976.75 47.1718 977.112 47.3576C977.473 47.5434 977.781 47.8195 978.005 48.1592L978.006 50.6775Z" fill="#131416"/>
<path d="M966.772 51.9947L969.082 48.853C969.547 48.2426 970.29 47.2166 970.429 46.9925C971.073 45.9272 971.151 44.808 970.592 43.6904C970.137 42.7806 969.332 42.3371 968.34 42.2177C966.95 42.0409 965.505 42.6857 964.852 44.0045C964.7 44.2916 964.6 44.6036 964.558 44.9258L966.039 45.2531C966.062 45.1892 966.083 45.1369 966.098 45.0894C966.168 44.8198 966.298 44.5695 966.478 44.3568C966.658 44.1441 966.883 43.9745 967.137 43.8605C967.677 43.6135 968.453 43.71 968.871 44.0716C969.572 44.682 969.562 45.708 969.054 46.3625C968.969 46.4738 964.585 52.0699 964.585 52.0699C964.544 52.1188 964.522 52.1811 964.523 52.245V53.4837L971.028 53.4674V51.9947H966.772Z" fill="#131416"/>
</g>
<path d="M819.5 130.5H1059.5V227.5H819.5V130.5Z" stroke="#131416"/>
<g clip-path="url(#clip7_1_320)">
<path d="M891.337 177.08C891.337 175.09 890.007 173.282 887.485 173.267C885.788 173.267 880.697 173.25 879 173.25V184.771H881.019V180.926H886.359L889.48 184.771H891.88V184.624L888.638 180.696C890.672 180.251 891.345 178.657 891.345 177.08H891.337ZM881.027 178.968V175.287H887.493C888.761 175.287 889.326 176.208 889.326 177.128C889.326 178.049 888.776 178.97 887.493 178.97L881.027 178.968Z" fill="#131416"/>
<path d="M905.323 173.255C903.641 173.255 898.566 173.271 896.885 173.271V184.775H898.902V181.386H905.323C910.566 181.386 910.55 173.25 905.323 173.25V173.255ZM905.323 179.397H898.902V175.32H905.323C907.89 175.32 907.905 179.397 905.323 179.397Z" fill="#131416"/>
<path d="M942.198 178.823C943.191 178.345 943.589 177.491 943.589 176.602C943.589 174.295 942.015 173.268 939.904 173.268H931.435V184.771H939.904C942.12 184.771 943.909 183.951 943.909 181.386C943.909 180.662 943.451 179.232 942.198 178.823ZM933.421 175.239H939.902C941.188 175.239 941.584 176.126 941.584 176.653C941.584 177.309 941.172 177.886 939.902 177.886H933.423L933.421 175.239ZM939.902 182.751H933.423V179.792H939.904C940.73 179.792 941.908 180.333 941.908 181.369C941.908 182.453 940.737 182.751 939.904 182.751" fill="#131416"/>
<path d="M950.755 173.268H948.737V184.773H959.652V182.766H950.755V173.268Z" fill="#131416"/>
<path d="M966.499 173.268H964.495V184.773H966.499V173.268Z" fill="#131416"/>
<path d="M981.625 181.593C981.336 181.902 981.008 182.165 980.65 182.374C980.247 182.603 979.819 182.778 979.376 182.894C978.873 183.023 978.357 183.087 977.839 183.083C977.16 183.095 976.484 182.984 975.84 182.755C975.307 182.562 974.814 182.26 974.388 181.864C974.007 181.502 973.705 181.053 973.503 180.551C973.306 180.061 973.204 179.533 973.204 178.999C973.203 178.46 973.305 177.926 973.503 177.43C973.705 176.928 974.007 176.48 974.388 176.118C974.814 175.722 975.309 175.422 975.844 175.235C976.489 175.011 977.163 174.903 977.841 174.916C978.334 174.913 978.826 174.971 979.308 175.088C979.735 175.191 980.15 175.346 980.545 175.549C980.9 175.733 981.229 175.973 981.52 176.26C981.695 176.437 981.854 176.631 981.994 176.841L983.695 175.83C983.479 175.495 983.231 175.185 982.953 174.907C982.56 174.513 982.12 174.175 981.645 173.905C981.116 173.607 980.553 173.383 979.971 173.238C979.307 173.075 978.627 172.996 977.946 173.001C976.969 172.985 975.996 173.151 975.071 173.492C974.294 173.78 973.576 174.224 972.955 174.803C972.4 175.327 971.956 175.972 971.652 176.695C971.347 177.418 971.19 178.203 971.19 178.997C971.19 179.791 971.347 180.576 971.652 181.299C971.956 182.022 972.4 182.667 972.955 183.191C973.575 183.771 974.294 184.216 975.071 184.502C975.992 184.844 976.961 185.012 977.935 184.999C978.637 185.005 979.338 184.92 980.022 184.746C980.617 184.591 981.191 184.353 981.728 184.039C982.213 183.757 982.658 183.404 983.051 182.99C983.336 182.686 983.588 182.348 983.8 181.981L982.091 180.975C981.958 181.202 981.802 181.413 981.625 181.604" fill="#131416"/>
<path d="M922.903 173.255C922.676 173.255 922.452 173.302 922.242 173.396C922.032 173.489 921.842 173.625 921.681 173.798C921.521 173.97 921.393 174.175 921.307 174.4C921.22 174.625 921.175 174.867 921.175 175.111H924.395V179.081C924.336 179.609 924.227 180.128 924.072 180.633C923.87 181.135 923.567 181.583 923.186 181.946C922.76 182.342 922.267 182.645 921.733 182.837C920.668 183.291 919.482 183.291 918.417 182.837C917.883 182.645 917.389 182.342 916.964 181.946C916.582 181.583 916.28 181.135 916.078 180.633C915.923 180.128 915.814 179.609 915.754 179.081V173.255H913.761V179.081C913.756 179.875 913.911 180.66 914.214 181.384C914.516 182.108 914.961 182.753 915.516 183.275C916.138 183.852 916.857 184.295 917.635 184.58C919.219 185.133 920.926 185.133 922.511 184.58C923.288 184.293 924.007 183.848 924.628 183.269C925.183 182.747 925.627 182.101 925.93 181.378C926.233 180.654 926.388 179.868 926.383 179.075V173.255H922.903Z" fill="#131416"/>
<path d="M993.502 175.161L988.789 184.771H986.782L992.384 173.339V173.268H995.361L1001 184.771H998.993L997.795 182.338H994.204C993.971 182.338 993.74 182.289 993.524 182.193C993.309 182.097 993.113 181.956 992.948 181.779C992.783 181.601 992.652 181.39 992.563 181.159C992.473 180.927 992.427 180.678 992.427 180.428H996.855L994.267 175.161H993.502Z" fill="#131416"/>
</g>
<defs>
<clipPath id="clip0_1_320">
<rect width="72" height="16" fill="white" transform="translate(85 41)"/>
</clipPath>
<clipPath id="clip1_1_320">
<rect width="104" height="12" fill="white" transform="translate(615 43)"/>
</clipPath>
<clipPath id="clip2_1_320">
<rect width="104" height="12" fill="white" transform="translate(69 173)"/>
</clipPath>
<clipPath id="clip3_1_320">
<rect width="98" height="16" fill="white" transform="translate(618 171)"/>
</clipPath>
<clipPath id="clip4_1_320">
<rect width="122" height="12" fill="white" transform="translate(333 43)"/>
</clipPath>
<clipPath id="clip5_1_320">
<rect width="72" height="16" fill="white" transform="translate(358 171)"/>
</clipPath>
<clipPath id="clip6_1_320">
<rect width="98" height="16" fill="white" transform="translate(891 41)"/>
</clipPath>
<clipPath id="clip7_1_320">
<rect width="122" height="12" fill="white" transform="translate(879 173)"/>
</clipPath>
</defs>
</svg>
