<svg width="1060" height="140" viewBox="0 0 1060 140" fill="none" xmlns="http://www.w3.org/2000/svg">
<path d="M1 1H1059V139H1V1Z" stroke="#161513" stroke-width="2"/>
<path d="M34 46H82V94H34V46Z" fill="#E94D35"/>
<path d="M59.002 73.408H53.476C53.128 73.408 52.87 73.348 52.702 73.228C52.546 73.108 52.468 72.916 52.468 72.652V72.292L59.074 63.4H60.334V72.22H61.918V73.408H60.334V76H59.002V73.408ZM59.038 72.22V65.38H59.02L53.944 72.22H59.038Z" fill="white"/>
<path d="M111.037 63C110.608 63 110.27 62.885 110.025 62.655C109.78 62.4097 109.611 62.0263 109.519 61.505L106.782 46.9H108.461L110.968 60.792H110.991L115.039 47.751H115.752C116.028 47.751 116.25 47.8353 116.419 48.004C116.588 48.1573 116.726 48.4027 116.833 48.74L120.421 60.792H120.444L122.951 46.9H124.63L121.893 61.505C121.801 62.0263 121.632 62.4097 121.387 62.655C121.142 62.885 120.804 63 120.375 63H119.685L115.775 50.028H115.752L111.727 63H111.037ZM130.621 63.184C129.333 63.184 128.298 62.8083 127.516 62.057C126.734 61.2903 126.343 60.2783 126.343 59.021V55.732C126.343 54.4133 126.734 53.3553 127.516 52.558C128.298 51.7453 129.333 51.339 130.621 51.339H132.507C133.734 51.339 134.723 51.73 135.474 52.512C136.226 53.294 136.601 54.329 136.601 55.617V57.641H127.999V59.021C127.999 59.8183 128.237 60.47 128.712 60.976C129.203 61.4667 129.839 61.712 130.621 61.712H132.369C133.136 61.712 133.757 61.505 134.232 61.091C134.708 60.6617 134.945 60.0943 134.945 59.389H136.555C136.555 60.5237 136.172 61.4437 135.405 62.149C134.639 62.839 133.627 63.184 132.369 63.184H130.621ZM134.945 56.215V55.617C134.945 54.7737 134.723 54.099 134.278 53.593C133.834 53.0717 133.243 52.811 132.507 52.811H130.621C129.839 52.811 129.203 53.0793 128.712 53.616C128.237 54.1527 127.999 54.858 127.999 55.732V56.215H134.945ZM144.505 63.184C143.999 63.184 143.462 63.0307 142.895 62.724C142.327 62.402 141.89 62.0033 141.584 61.528V63H139.974V46.9H141.63V52.88C141.967 52.4047 142.396 52.029 142.918 51.753C143.454 51.477 144.006 51.339 144.574 51.339H146.207C146.989 51.339 147.679 51.523 148.277 51.891C148.89 52.2437 149.365 52.7497 149.703 53.409C150.055 54.053 150.232 54.7967 150.232 55.64V58.607C150.232 59.5117 150.055 60.309 149.703 60.999C149.365 61.689 148.882 62.2257 148.254 62.609C147.64 62.9923 146.927 63.184 146.115 63.184H144.505ZM146.069 61.712C146.805 61.712 147.403 61.4283 147.863 60.861C148.338 60.2783 148.576 59.527 148.576 58.607V55.64C148.576 54.7967 148.346 54.1143 147.886 53.593C147.441 53.0717 146.866 52.811 146.161 52.811H144.62C143.822 52.811 143.14 53.1023 142.573 53.685C142.005 54.2677 141.691 55.0343 141.63 55.985V58.791C141.66 59.3277 141.814 59.8183 142.09 60.263C142.366 60.7077 142.718 61.0603 143.148 61.321C143.577 61.5817 144.029 61.712 144.505 61.712H146.069ZM165.572 61.528V63H164.79C163.656 63 162.843 62.7623 162.352 62.287C161.862 61.7963 161.616 60.9913 161.616 59.872V52.949H156.556V63H154.9V52.949H152.922V51.477H154.9V50.626C154.9 49.3687 155.222 48.418 155.866 47.774C156.51 47.13 157.453 46.808 158.695 46.808H160.259V48.234H158.695C157.959 48.234 157.415 48.4333 157.062 48.832C156.725 49.2153 156.556 49.8133 156.556 50.626V51.477H161.616V46.785H163.272V59.872C163.272 60.4547 163.387 60.8763 163.617 61.137C163.863 61.3977 164.254 61.528 164.79 61.528H165.572ZM172.087 63.184C170.799 63.184 169.764 62.7853 168.982 61.988C168.2 61.1907 167.809 60.1403 167.809 58.837V55.686C167.809 54.3827 168.2 53.3323 168.982 52.535C169.779 51.7377 170.829 51.339 172.133 51.339H174.019C175.322 51.339 176.365 51.7377 177.147 52.535C177.944 53.3323 178.343 54.3827 178.343 55.686V58.837C178.343 60.1403 177.944 61.1907 177.147 61.988C176.349 62.7853 175.291 63.184 173.973 63.184H172.087ZM173.973 61.712C174.801 61.712 175.46 61.4513 175.951 60.93C176.441 60.3933 176.687 59.6957 176.687 58.837V55.686C176.687 54.8273 176.441 54.1373 175.951 53.616C175.46 53.0793 174.816 52.811 174.019 52.811H172.133C171.335 52.811 170.691 53.0793 170.201 53.616C169.71 54.1373 169.465 54.8273 169.465 55.686V58.837C169.465 59.711 169.702 60.4087 170.178 60.93C170.653 61.4513 171.289 61.712 172.087 61.712H173.973ZM195.741 51.523L193.257 61.666C193.135 62.126 192.966 62.4633 192.751 62.678C192.537 62.8927 192.245 63 191.877 63H191.095L188.22 54.329L185.253 63H184.471C184.119 63 183.827 62.8927 183.597 62.678C183.367 62.4633 183.199 62.126 183.091 61.666L180.584 51.523H182.332L184.471 61.16L187.576 51.845H188.174C188.619 51.845 188.918 52.0903 189.071 52.581L191.877 61.091L193.993 51.523H195.741ZM214.375 58.538H207.314L205.658 63H203.91L210.097 46.9H210.879C211.385 46.9 211.753 47.2067 211.983 47.82L215.525 57.112H215.548V57.158L217.779 63H216.031L214.375 58.538ZM207.843 57.112H213.846L210.856 49.108H210.833L207.843 57.112ZM233.837 51.523L231.353 61.666C231.231 62.126 231.062 62.4633 230.847 62.678C230.633 62.8927 230.341 63 229.973 63H229.191L226.316 54.329L223.349 63H222.567C222.215 63 221.923 62.8927 221.693 62.678C221.463 62.4633 221.295 62.126 221.187 61.666L218.68 51.523H220.428L222.567 61.16L225.672 51.845H226.27C226.715 51.845 227.014 52.0903 227.167 52.581L229.973 61.091L232.089 51.523H233.837ZM250.939 51.523L248.455 61.666C248.332 62.126 248.163 62.4633 247.949 62.678C247.734 62.8927 247.443 63 247.075 63H246.293L243.418 54.329L240.451 63H239.669C239.316 63 239.025 62.8927 238.795 62.678C238.565 62.4633 238.396 62.126 238.289 61.666L235.782 51.523H237.53L239.669 61.16L242.774 51.845H243.372C243.816 51.845 244.115 52.0903 244.269 52.581L247.075 61.091L249.191 51.523H250.939ZM268.04 51.523L265.556 61.666C265.433 62.126 265.264 62.4633 265.05 62.678C264.835 62.8927 264.544 63 264.176 63H263.394L260.519 54.329L257.552 63H256.77C256.417 63 256.126 62.8927 255.896 62.678C255.666 62.4633 255.497 62.126 255.39 61.666L252.883 51.523H254.631L256.77 61.16L259.875 51.845H260.473C260.917 51.845 261.216 52.0903 261.37 52.581L264.176 61.091L266.292 51.523H268.04ZM274.038 63.184C272.919 63.184 272.022 62.8927 271.347 62.31C270.688 61.7273 270.358 60.9453 270.358 59.964V59.228C270.358 58.262 270.703 57.4877 271.393 56.905C272.083 56.3223 272.996 56.031 274.13 56.031H275.602C276.108 56.031 276.63 56.1077 277.166 56.261C277.703 56.4143 278.163 56.6213 278.546 56.882V54.973C278.546 54.329 278.347 53.8077 277.948 53.409C277.55 52.995 277.021 52.788 276.361 52.788H274.521C273.862 52.788 273.333 52.9413 272.934 53.248C272.536 53.5547 272.336 53.961 272.336 54.467H270.68C270.68 53.5317 271.033 52.7803 271.738 52.213C272.444 51.6303 273.371 51.339 274.521 51.339H276.361C277.496 51.339 278.408 51.6763 279.098 52.351C279.804 53.0103 280.156 53.8843 280.156 54.973V63H278.592V61.39C278.24 61.942 277.772 62.379 277.189 62.701C276.622 63.023 276.032 63.184 275.418 63.184H274.038ZM275.464 61.735C276.185 61.735 276.829 61.5127 277.396 61.068C277.964 60.6233 278.347 60.033 278.546 59.297V58.446C278.24 58.1547 277.81 57.9247 277.258 57.756C276.722 57.572 276.17 57.48 275.602 57.48H274.13C273.502 57.48 272.988 57.641 272.589 57.963C272.206 58.285 272.014 58.7067 272.014 59.228V59.964C272.014 60.5007 272.198 60.93 272.566 61.252C272.934 61.574 273.425 61.735 274.038 61.735H275.464ZM283.987 51.523H285.597V53.294C285.903 52.7573 286.363 52.3203 286.977 51.983C287.605 51.6457 288.257 51.477 288.932 51.477H289.944V52.972H288.932C287.95 52.972 287.153 53.2863 286.54 53.915C285.942 54.5283 285.643 55.3487 285.643 56.376V63H283.987V51.523ZM295.848 63.184C295.066 63.184 294.368 63 293.755 62.632C293.142 62.264 292.666 61.7503 292.329 61.091C291.992 60.4317 291.823 59.665 291.823 58.791V56.031C291.823 55.111 291.999 54.2983 292.352 53.593C292.705 52.8723 293.203 52.3203 293.847 51.937C294.491 51.5383 295.227 51.339 296.055 51.339H297.757C298.278 51.339 298.777 51.4617 299.252 51.707C299.743 51.9523 300.134 52.2897 300.425 52.719V46.9H302.081V63H300.471V61.298C300.118 61.8653 299.658 62.3253 299.091 62.678C298.524 63.0153 297.972 63.184 297.435 63.184H295.848ZM297.389 61.712C297.88 61.712 298.355 61.5587 298.815 61.252C299.275 60.93 299.651 60.516 299.942 60.01C300.233 59.504 300.394 58.9827 300.425 58.446V55.548C300.318 54.7353 300.011 54.076 299.505 53.57C299.014 53.064 298.416 52.811 297.711 52.811H296.101C295.319 52.811 294.683 53.11 294.192 53.708C293.717 54.2907 293.479 55.065 293.479 56.031V58.791C293.479 59.6497 293.701 60.355 294.146 60.907C294.606 61.4437 295.189 61.712 295.894 61.712H297.389ZM309.326 63.184C308.16 63.184 307.225 62.8543 306.52 62.195C305.814 61.5357 305.462 60.6693 305.462 59.596H307.072C307.072 60.24 307.279 60.7613 307.693 61.16C308.107 61.5587 308.651 61.758 309.326 61.758H311.327C311.986 61.758 312.523 61.6277 312.937 61.367C313.351 61.091 313.558 60.7383 313.558 60.309V59.527C313.558 59.2357 313.443 58.9827 313.213 58.768C312.983 58.538 312.684 58.3847 312.316 58.308L308.337 57.618C307.539 57.48 306.895 57.181 306.405 56.721C305.929 56.2457 305.692 55.6937 305.692 55.065V54.306C305.692 53.4167 306.029 52.7037 306.704 52.167C307.378 51.615 308.268 51.339 309.372 51.339H311.35C312.423 51.339 313.289 51.6457 313.949 52.259C314.608 52.857 314.938 53.6543 314.938 54.651H313.328C313.312 54.0837 313.121 53.6313 312.753 53.294C312.4 52.9413 311.932 52.765 311.35 52.765H309.372C308.758 52.765 308.268 52.9107 307.9 53.202C307.532 53.478 307.348 53.846 307.348 54.306V54.973C307.348 55.2643 307.47 55.525 307.716 55.755C307.976 55.985 308.306 56.1307 308.705 56.192L312.661 56.882C313.427 57.02 314.041 57.319 314.501 57.779C314.976 58.239 315.214 58.791 315.214 59.435V60.355C315.214 61.1983 314.853 61.8807 314.133 62.402C313.427 62.9233 312.492 63.184 311.327 63.184H309.326ZM328.992 48.372H323.886V46.9H335.8V48.372H330.694V63H328.992V48.372ZM339.866 63.184C338.578 63.184 337.543 62.8083 336.761 62.057C335.979 61.2903 335.588 60.2783 335.588 59.021V55.732C335.588 54.4133 335.979 53.3553 336.761 52.558C337.543 51.7453 338.578 51.339 339.866 51.339H341.752C342.978 51.339 343.967 51.73 344.719 52.512C345.47 53.294 345.846 54.329 345.846 55.617V57.641H337.244V59.021C337.244 59.8183 337.481 60.47 337.957 60.976C338.447 61.4667 339.084 61.712 339.866 61.712H341.614C342.38 61.712 343.001 61.505 343.477 61.091C343.952 60.6617 344.19 60.0943 344.19 59.389H345.8C345.8 60.5237 345.416 61.4437 344.65 62.149C343.883 62.839 342.871 63.184 341.614 63.184H339.866ZM344.19 56.215V55.617C344.19 54.7737 343.967 54.099 343.523 53.593C343.078 53.0717 342.488 52.811 341.752 52.811H339.866C339.084 52.811 338.447 53.0793 337.957 53.616C337.481 54.1527 337.244 54.858 337.244 55.732V56.215H344.19ZM352.53 63.184C351.411 63.184 350.514 62.8927 349.839 62.31C349.18 61.7273 348.85 60.9453 348.85 59.964V59.228C348.85 58.262 349.195 57.4877 349.885 56.905C350.575 56.3223 351.487 56.031 352.622 56.031H354.094C354.6 56.031 355.121 56.1077 355.658 56.261C356.195 56.4143 356.655 56.6213 357.038 56.882V54.973C357.038 54.329 356.839 53.8077 356.44 53.409C356.041 52.995 355.512 52.788 354.853 52.788H353.013C352.354 52.788 351.825 52.9413 351.426 53.248C351.027 53.5547 350.828 53.961 350.828 54.467H349.172C349.172 53.5317 349.525 52.7803 350.23 52.213C350.935 51.6303 351.863 51.339 353.013 51.339H354.853C355.988 51.339 356.9 51.6763 357.59 52.351C358.295 53.0103 358.648 53.8843 358.648 54.973V63H357.084V61.39C356.731 61.942 356.264 62.379 355.681 62.701C355.114 63.023 354.523 63.184 353.91 63.184H352.53ZM353.956 61.735C354.677 61.735 355.321 61.5127 355.888 61.068C356.455 60.6233 356.839 60.033 357.038 59.297V58.446C356.731 58.1547 356.302 57.9247 355.75 57.756C355.213 57.572 354.661 57.48 354.094 57.48H352.622C351.993 57.48 351.48 57.641 351.081 57.963C350.698 58.285 350.506 58.7067 350.506 59.228V59.964C350.506 60.5007 350.69 60.93 351.058 61.252C351.426 61.574 351.917 61.735 352.53 61.735H353.956ZM375.059 51.339C376.071 51.339 376.869 51.6687 377.451 52.328C378.049 52.972 378.348 53.869 378.348 55.019V63H376.692V54.973C376.692 54.2983 376.539 53.7693 376.232 53.386C375.926 53.0027 375.519 52.811 375.013 52.811H373.702C373.043 52.811 372.499 53.0333 372.069 53.478C371.64 53.9227 371.364 54.5513 371.241 55.364V63H369.585V55.111C369.585 54.3903 369.44 53.8307 369.148 53.432C368.872 53.018 368.489 52.811 367.998 52.811H366.687C366.059 52.811 365.507 53.087 365.031 53.639C364.556 54.191 364.257 54.9117 364.134 55.801V63H362.478V51.523H364.088V53.179C364.395 52.5963 364.778 52.144 365.238 51.822C365.698 51.5 366.181 51.339 366.687 51.339H368.044C368.688 51.339 369.24 51.5 369.7 51.822C370.176 52.1287 370.536 52.581 370.781 53.179C371.134 52.5657 371.556 52.1057 372.046 51.799C372.537 51.4923 373.074 51.339 373.656 51.339H375.059Z" fill="#161513"/>
<path d="M107.44 79.4H113.56C114.484 79.4 115.222 79.664 115.774 80.192C116.338 80.708 116.62 81.392 116.62 82.244V83.558C116.62 84.194 116.416 84.758 116.008 85.25C115.6 85.73 115.054 86.072 114.37 86.276V86.294C114.73 86.486 115.054 86.792 115.342 87.212C115.642 87.632 115.87 88.106 116.026 88.634L117.016 92H115.648L114.658 88.634C114.49 88.046 114.196 87.572 113.776 87.212C113.368 86.852 112.918 86.672 112.426 86.672H108.772V92H107.44V79.4ZM113.092 85.484C113.752 85.484 114.28 85.31 114.676 84.962C115.084 84.602 115.288 84.134 115.288 83.558V82.172C115.288 81.692 115.126 81.308 114.802 81.02C114.478 80.732 114.052 80.588 113.524 80.588H108.772V85.484H113.092ZM121.757 92.144C120.929 92.144 120.257 91.862 119.741 91.298C119.225 90.734 118.967 89.996 118.967 89.084V83.018H120.263V89.12C120.263 89.684 120.401 90.14 120.677 90.488C120.953 90.824 121.313 90.992 121.757 90.992H122.873C123.425 90.992 123.935 90.77 124.403 90.326C124.871 89.882 125.171 89.324 125.303 88.652V83.018H126.599V92H125.339V90.632C125.063 91.064 124.697 91.424 124.241 91.712C123.785 92 123.341 92.144 122.909 92.144H121.757ZM129.341 83.018H130.601V84.35C130.877 83.918 131.237 83.564 131.681 83.288C132.125 83.012 132.569 82.874 133.013 82.874H134.237C135.065 82.874 135.731 83.156 136.235 83.72C136.751 84.284 137.009 85.022 137.009 85.934V92H135.713V85.898C135.713 85.346 135.575 84.896 135.299 84.548C135.023 84.2 134.657 84.026 134.201 84.026H133.049C132.485 84.026 131.969 84.248 131.501 84.692C131.045 85.136 130.757 85.706 130.637 86.402V92H129.341V83.018ZM139.641 83.018H140.901V84.35C141.177 83.918 141.537 83.564 141.981 83.288C142.425 83.012 142.869 82.874 143.313 82.874H144.537C145.365 82.874 146.031 83.156 146.535 83.72C147.051 84.284 147.309 85.022 147.309 85.934V92H146.013V85.898C146.013 85.346 145.875 84.896 145.599 84.548C145.323 84.2 144.957 84.026 144.501 84.026H143.349C142.785 84.026 142.269 84.248 141.801 84.692C141.345 85.136 141.057 85.706 140.937 86.402V92H139.641V83.018ZM152.93 92.144C151.922 92.144 151.112 91.85 150.5 91.262C149.888 90.662 149.582 89.87 149.582 88.886V86.312C149.582 85.28 149.888 84.452 150.5 83.828C151.112 83.192 151.922 82.874 152.93 82.874H154.406C155.366 82.874 156.14 83.18 156.728 83.792C157.316 84.404 157.61 85.214 157.61 86.222V87.806H150.878V88.886C150.878 89.51 151.064 90.02 151.436 90.416C151.82 90.8 152.318 90.992 152.93 90.992H154.298C154.898 90.992 155.384 90.83 155.756 90.506C156.128 90.17 156.314 89.726 156.314 89.174H157.574C157.574 90.062 157.274 90.782 156.674 91.334C156.074 91.874 155.282 92.144 154.298 92.144H152.93ZM156.314 86.69V86.222C156.314 85.562 156.14 85.034 155.792 84.638C155.444 84.23 154.982 84.026 154.406 84.026H152.93C152.318 84.026 151.82 84.236 151.436 84.656C151.064 85.076 150.878 85.628 150.878 86.312V86.69H156.314ZM159.874 83.018H161.134V84.404C161.374 83.984 161.734 83.642 162.214 83.378C162.706 83.114 163.216 82.982 163.744 82.982H164.536V84.152H163.744C162.976 84.152 162.352 84.398 161.872 84.89C161.404 85.37 161.17 86.012 161.17 86.816V92H159.874V83.018ZM174.836 92.144C174.068 92.144 173.39 91.976 172.802 91.64C172.214 91.292 171.758 90.806 171.434 90.182C171.11 89.546 170.948 88.82 170.948 88.004V79.4H172.28V88.04C172.28 88.916 172.514 89.624 172.982 90.164C173.45 90.692 174.068 90.956 174.836 90.956H176.78C177.548 90.956 178.166 90.692 178.634 90.164C179.102 89.624 179.336 88.916 179.336 88.04V79.4H180.668V88.004C180.668 88.82 180.506 89.546 180.182 90.182C179.858 90.806 179.402 91.292 178.814 91.64C178.226 91.976 177.548 92.144 176.78 92.144H174.836ZM183.411 83.018H184.671V84.242C184.923 83.834 185.253 83.504 185.661 83.252C186.081 83 186.501 82.874 186.921 82.874H188.217C189.177 82.874 189.951 83.18 190.539 83.792C191.139 84.404 191.439 85.214 191.439 86.222V88.436C191.439 89.552 191.133 90.452 190.521 91.136C189.921 91.808 189.123 92.144 188.127 92.144H186.831C186.459 92.144 186.069 92.042 185.661 91.838C185.253 91.622 184.935 91.346 184.707 91.01V95.582H183.411V83.018ZM188.091 90.992C188.715 90.992 189.213 90.758 189.585 90.29C189.957 89.822 190.143 89.204 190.143 88.436V86.222C190.143 85.562 189.963 85.034 189.603 84.638C189.243 84.23 188.769 84.026 188.181 84.026H186.921C186.417 84.026 185.961 84.224 185.553 84.62C185.145 85.004 184.863 85.502 184.707 86.114V88.814C184.791 89.45 185.037 89.972 185.445 90.38C185.853 90.788 186.339 90.992 186.903 90.992H188.091ZM198.133 86.834H202.903V87.986H198.133V86.834ZM212.528 92C212.192 92 211.928 91.91 211.736 91.73C211.544 91.538 211.412 91.238 211.34 90.83L209.198 79.4H210.512L212.474 90.272H212.492L215.66 80.066H216.218C216.434 80.066 216.608 80.132 216.74 80.264C216.872 80.384 216.98 80.576 217.064 80.84L219.872 90.272H219.89L221.852 79.4H223.166L221.024 90.83C220.952 91.238 220.82 91.538 220.628 91.73C220.436 91.91 220.172 92 219.836 92H219.296L216.236 81.848H216.218L213.068 92H212.528ZM227.479 92.144C226.471 92.144 225.661 91.85 225.049 91.262C224.437 90.662 224.131 89.87 224.131 88.886V86.312C224.131 85.28 224.437 84.452 225.049 83.828C225.661 83.192 226.471 82.874 227.479 82.874H228.955C229.915 82.874 230.689 83.18 231.277 83.792C231.865 84.404 232.159 85.214 232.159 86.222V87.806H225.427V88.886C225.427 89.51 225.613 90.02 225.985 90.416C226.369 90.8 226.867 90.992 227.479 90.992H228.847C229.447 90.992 229.933 90.83 230.305 90.506C230.677 90.17 230.863 89.726 230.863 89.174H232.123C232.123 90.062 231.823 90.782 231.223 91.334C230.623 91.874 229.831 92.144 228.847 92.144H227.479ZM230.863 86.69V86.222C230.863 85.562 230.689 85.034 230.341 84.638C229.993 84.23 229.531 84.026 228.955 84.026H227.479C226.867 84.026 226.369 84.236 225.985 84.656C225.613 85.076 225.427 85.628 225.427 86.312V86.69H230.863ZM237.969 92.144C237.573 92.144 237.153 92.024 236.709 91.784C236.265 91.532 235.923 91.22 235.683 90.848V92H234.423V79.4H235.719V84.08C235.983 83.708 236.319 83.414 236.727 83.198C237.147 82.982 237.579 82.874 238.023 82.874H239.301C239.913 82.874 240.453 83.018 240.921 83.306C241.401 83.582 241.773 83.978 242.037 84.494C242.313 84.998 242.451 85.58 242.451 86.24V88.562C242.451 89.27 242.313 89.894 242.037 90.434C241.773 90.974 241.395 91.394 240.903 91.694C240.423 91.994 239.865 92.144 239.229 92.144H237.969ZM239.193 90.992C239.769 90.992 240.237 90.77 240.597 90.326C240.969 89.87 241.155 89.282 241.155 88.562V86.24C241.155 85.58 240.975 85.046 240.615 84.638C240.267 84.23 239.817 84.026 239.265 84.026H238.059C237.435 84.026 236.901 84.254 236.457 84.71C236.013 85.166 235.767 85.766 235.719 86.51V88.706C235.743 89.126 235.863 89.51 236.079 89.858C236.295 90.206 236.571 90.482 236.907 90.686C237.243 90.89 237.597 90.992 237.969 90.992H239.193ZM254.081 90.848V92H253.469C252.581 92 251.945 91.814 251.561 91.442C251.177 91.058 250.985 90.428 250.985 89.552V84.134H247.025V92H245.729V84.134H244.181V82.982H245.729V82.316C245.729 81.332 245.981 80.588 246.485 80.084C246.989 79.58 247.727 79.328 248.699 79.328H249.923V80.444H248.699C248.123 80.444 247.697 80.6 247.421 80.912C247.157 81.212 247.025 81.68 247.025 82.316V82.982H250.985V79.31H252.281V89.552C252.281 90.008 252.371 90.338 252.551 90.542C252.743 90.746 253.049 90.848 253.469 90.848H254.081ZM258.803 92.144C257.795 92.144 256.985 91.832 256.373 91.208C255.761 90.584 255.455 89.762 255.455 88.742V86.276C255.455 85.256 255.761 84.434 256.373 83.81C256.997 83.186 257.819 82.874 258.839 82.874H260.315C261.335 82.874 262.151 83.186 262.763 83.81C263.387 84.434 263.699 85.256 263.699 86.276V88.742C263.699 89.762 263.387 90.584 262.763 91.208C262.139 91.832 261.311 92.144 260.279 92.144H258.803ZM260.279 90.992C260.927 90.992 261.443 90.788 261.827 90.38C262.211 89.96 262.403 89.414 262.403 88.742V86.276C262.403 85.604 262.211 85.064 261.827 84.656C261.443 84.236 260.939 84.026 260.315 84.026H258.839C258.215 84.026 257.711 84.236 257.327 84.656C256.943 85.064 256.751 85.604 256.751 86.276V88.742C256.751 89.426 256.937 89.972 257.309 90.38C257.681 90.788 258.179 90.992 258.803 90.992H260.279ZM276.94 83.018L274.996 90.956C274.9 91.316 274.768 91.58 274.6 91.748C274.432 91.916 274.204 92 273.916 92H273.304L271.054 85.214L268.732 92H268.12C267.844 92 267.616 91.916 267.436 91.748C267.256 91.58 267.124 91.316 267.04 90.956L265.078 83.018H266.446L268.12 90.56L270.55 83.27H271.018C271.366 83.27 271.6 83.462 271.72 83.846L273.916 90.506L275.572 83.018H276.94ZM284.796 92C284.424 92 284.136 91.898 283.932 91.694C283.728 91.478 283.626 91.184 283.626 90.812V79.4H292.086V80.552H284.958V84.98H291.546V86.132H284.958V90.848H292.086V92H284.796ZM296.651 87.41L293.411 83.018H294.887L297.389 86.402L299.891 83.018H301.367L298.127 87.41L301.511 92H300.035L297.389 88.418L294.743 92H293.267L296.651 87.41ZM303.171 83.018H304.431V84.242C304.683 83.834 305.013 83.504 305.421 83.252C305.841 83 306.261 82.874 306.681 82.874H307.977C308.937 82.874 309.711 83.18 310.299 83.792C310.899 84.404 311.199 85.214 311.199 86.222V88.436C311.199 89.552 310.893 90.452 310.281 91.136C309.681 91.808 308.883 92.144 307.887 92.144H306.591C306.219 92.144 305.829 92.042 305.421 91.838C305.013 91.622 304.695 91.346 304.467 91.01V95.582H303.171V83.018ZM307.851 90.992C308.475 90.992 308.973 90.758 309.345 90.29C309.717 89.822 309.903 89.204 309.903 88.436V86.222C309.903 85.562 309.723 85.034 309.363 84.638C309.003 84.23 308.529 84.026 307.941 84.026H306.681C306.177 84.026 305.721 84.224 305.313 84.62C304.905 85.004 304.623 85.502 304.467 86.114V88.814C304.551 89.45 304.797 89.972 305.205 90.38C305.613 90.788 306.099 90.992 306.663 90.992H307.851ZM316.565 92.144C315.557 92.144 314.747 91.85 314.135 91.262C313.523 90.662 313.217 89.87 313.217 88.886V86.312C313.217 85.28 313.523 84.452 314.135 83.828C314.747 83.192 315.557 82.874 316.565 82.874H318.041C319.001 82.874 319.775 83.18 320.363 83.792C320.951 84.404 321.245 85.214 321.245 86.222V87.806H314.513V88.886C314.513 89.51 314.699 90.02 315.071 90.416C315.455 90.8 315.953 90.992 316.565 90.992H317.933C318.533 90.992 319.019 90.83 319.391 90.506C319.763 90.17 319.949 89.726 319.949 89.174H321.209C321.209 90.062 320.909 90.782 320.309 91.334C319.709 91.874 318.917 92.144 317.933 92.144H316.565ZM319.949 86.69V86.222C319.949 85.562 319.775 85.034 319.427 84.638C319.079 84.23 318.617 84.026 318.041 84.026H316.565C315.953 84.026 315.455 84.236 315.071 84.656C314.699 85.076 314.513 85.628 314.513 86.312V86.69H319.949ZM323.509 83.018H324.769V84.404C325.009 83.984 325.369 83.642 325.849 83.378C326.341 83.114 326.851 82.982 327.379 82.982H328.171V84.152H327.379C326.611 84.152 325.987 84.398 325.507 84.89C325.039 85.37 324.805 86.012 324.805 86.816V92H323.509V83.018ZM333.435 92C332.487 92 331.803 91.796 331.383 91.388C330.975 90.98 330.771 90.308 330.771 89.372V84.17H329.187V83.018H330.771V80.3H332.067V83.018H334.407V84.17H332.067V89.372C332.067 89.9 332.169 90.278 332.373 90.506C332.589 90.734 332.943 90.848 333.435 90.848H334.407V92H333.435ZM342.698 92C342.326 92 342.038 91.898 341.834 91.694C341.63 91.49 341.528 91.202 341.528 90.83V79.4H346.748C347.636 79.4 348.416 79.574 349.088 79.922C349.76 80.258 350.282 80.744 350.654 81.38C351.026 82.004 351.212 82.724 351.212 83.54V87.5C351.212 88.976 350.84 90.098 350.096 90.866C349.352 91.622 348.26 92 346.82 92H342.698ZM346.784 90.812C347.804 90.812 348.572 90.536 349.088 89.984C349.616 89.42 349.88 88.592 349.88 87.5V83.54C349.88 82.664 349.586 81.956 348.998 81.416C348.422 80.864 347.66 80.588 346.712 80.588H342.86V90.812H346.784ZM356.573 92.144C355.565 92.144 354.755 91.85 354.143 91.262C353.531 90.662 353.225 89.87 353.225 88.886V86.312C353.225 85.28 353.531 84.452 354.143 83.828C354.755 83.192 355.565 82.874 356.573 82.874H358.049C359.009 82.874 359.783 83.18 360.371 83.792C360.959 84.404 361.253 85.214 361.253 86.222V87.806H354.521V88.886C354.521 89.51 354.707 90.02 355.079 90.416C355.463 90.8 355.961 90.992 356.573 90.992H357.941C358.541 90.992 359.027 90.83 359.399 90.506C359.771 90.17 359.957 89.726 359.957 89.174H361.217C361.217 90.062 360.917 90.782 360.317 91.334C359.717 91.874 358.925 92.144 357.941 92.144H356.573ZM359.957 86.69V86.222C359.957 85.562 359.783 85.034 359.435 84.638C359.087 84.23 358.625 84.026 358.049 84.026H356.573C355.961 84.026 355.463 84.236 355.079 84.656C354.707 85.076 354.521 85.628 354.521 86.312V86.69H359.957ZM366.072 92.144C365.16 92.144 364.428 91.886 363.876 91.37C363.324 90.854 363.048 90.176 363.048 89.336H364.308C364.308 89.84 364.47 90.248 364.794 90.56C365.118 90.872 365.544 91.028 366.072 91.028H367.638C368.154 91.028 368.574 90.926 368.898 90.722C369.222 90.506 369.384 90.23 369.384 89.894V89.282C369.384 89.054 369.294 88.856 369.114 88.688C368.934 88.508 368.7 88.388 368.412 88.328L365.298 87.788C364.674 87.68 364.17 87.446 363.786 87.086C363.414 86.714 363.228 86.282 363.228 85.79V85.196C363.228 84.5 363.492 83.942 364.02 83.522C364.548 83.09 365.244 82.874 366.108 82.874H367.656C368.496 82.874 369.174 83.114 369.69 83.594C370.206 84.062 370.464 84.686 370.464 85.466H369.204C369.192 85.022 369.042 84.668 368.754 84.404C368.478 84.128 368.112 83.99 367.656 83.99H366.108C365.628 83.99 365.244 84.104 364.956 84.332C364.668 84.548 364.524 84.836 364.524 85.196V85.718C364.524 85.946 364.62 86.15 364.812 86.33C365.016 86.51 365.274 86.624 365.586 86.672L368.682 87.212C369.282 87.32 369.762 87.554 370.122 87.914C370.494 88.274 370.68 88.706 370.68 89.21V89.93C370.68 90.59 370.398 91.124 369.834 91.532C369.282 91.94 368.55 92.144 367.638 92.144H366.072ZM373.84 81.668C373.552 81.668 373.318 81.578 373.138 81.398C372.958 81.218 372.868 80.984 372.868 80.696C372.868 80.408 372.958 80.174 373.138 79.994C373.318 79.814 373.552 79.724 373.84 79.724C374.128 79.724 374.362 79.814 374.542 79.994C374.722 80.174 374.812 80.408 374.812 80.696C374.812 80.984 374.722 81.218 374.542 81.398C374.362 81.578 374.128 81.668 373.84 81.668ZM373.192 83.018H374.488V92H373.192V83.018ZM380.46 95.654C379.668 95.654 379.014 95.438 378.498 95.006C377.982 94.586 377.694 94.028 377.634 93.332H378.93C378.978 93.692 379.14 93.98 379.416 94.196C379.704 94.424 380.052 94.538 380.46 94.538H381.954C382.578 94.538 383.058 94.328 383.394 93.908C383.742 93.5 383.916 92.924 383.916 92.18V90.794C383.652 91.154 383.304 91.448 382.872 91.676C382.452 91.892 382.044 92 381.648 92H380.334C379.722 92 379.176 91.856 378.696 91.568C378.216 91.28 377.844 90.878 377.58 90.362C377.316 89.846 377.184 89.246 377.184 88.562V86.456C377.184 85.388 377.49 84.524 378.102 83.864C378.726 83.204 379.542 82.874 380.55 82.874H381.81C382.194 82.874 382.59 82.982 382.998 83.198C383.406 83.414 383.724 83.69 383.952 84.026V83.018H385.212V92.18C385.212 93.272 384.924 94.124 384.348 94.736C383.772 95.348 382.974 95.654 381.954 95.654H380.46ZM381.648 90.848C382.248 90.848 382.758 90.614 383.178 90.146C383.61 89.666 383.856 89.06 383.916 88.328V86.114C383.868 85.502 383.64 85.004 383.232 84.62C382.836 84.224 382.362 84.026 381.81 84.026H380.586C379.95 84.026 379.44 84.248 379.056 84.692C378.672 85.136 378.48 85.724 378.48 86.456V88.562C378.48 89.234 378.654 89.786 379.002 90.218C379.362 90.638 379.818 90.848 380.37 90.848H381.648ZM387.95 83.018H389.21V84.35C389.486 83.918 389.846 83.564 390.29 83.288C390.734 83.012 391.178 82.874 391.622 82.874H392.846C393.674 82.874 394.34 83.156 394.844 83.72C395.36 84.284 395.618 85.022 395.618 85.934V92H394.322V85.898C394.322 85.346 394.184 84.896 393.908 84.548C393.632 84.2 393.266 84.026 392.81 84.026H391.658C391.094 84.026 390.578 84.248 390.11 84.692C389.654 85.136 389.366 85.706 389.246 86.402V92H387.95V83.018Z" fill="#161513"/>
<path d="M833.28 64.8H838.704C839.536 64.8 840.203 65.0347 840.704 65.504C841.216 65.9733 841.472 66.592 841.472 67.36V69.008C841.472 69.8293 841.2 70.496 840.656 71.008C840.112 71.5093 839.397 71.76 838.512 71.76H834.464V76H833.28V64.8ZM838.48 70.704C839.024 70.704 839.461 70.5493 839.792 70.24C840.123 69.92 840.288 69.4987 840.288 68.976V67.328C840.288 66.8907 840.139 66.5387 839.84 66.272C839.552 65.9947 839.163 65.856 838.672 65.856H834.464V70.704H838.48ZM843.264 64.8H848.704C849.526 64.8 850.182 65.0347 850.672 65.504C851.174 65.9627 851.424 66.5707 851.424 67.328V68.496C851.424 69.0613 851.243 69.5627 850.88 70C850.518 70.4267 850.032 70.7307 849.424 70.912V70.928C849.744 71.0987 850.032 71.3707 850.288 71.744C850.555 72.1173 850.758 72.5387 850.896 73.008L851.776 76H850.56L849.68 73.008C849.531 72.4853 849.27 72.064 848.896 71.744C848.534 71.424 848.134 71.264 847.696 71.264H844.448V76H843.264V64.8ZM848.288 70.208C848.875 70.208 849.344 70.0533 849.696 69.744C850.059 69.424 850.24 69.008 850.24 68.496V67.264C850.24 66.8373 850.096 66.496 849.808 66.24C849.52 65.984 849.142 65.856 848.672 65.856H844.448V70.208H848.288ZM857.032 76.128C856.296 76.128 855.645 75.9627 855.08 75.632C854.515 75.3013 854.072 74.832 853.752 74.224C853.443 73.616 853.288 72.912 853.288 72.112V68.688C853.288 67.888 853.443 67.184 853.752 66.576C854.072 65.968 854.515 65.4987 855.08 65.168C855.645 64.8373 856.301 64.672 857.048 64.672H858.744C859.491 64.672 860.147 64.8373 860.712 65.168C861.277 65.4987 861.715 65.968 862.024 66.576C862.344 67.184 862.504 67.888 862.504 68.688V72.112C862.504 72.912 862.344 73.616 862.024 74.224C861.715 74.8213 861.272 75.2907 860.696 75.632C860.131 75.9627 859.48 76.128 858.744 76.128H857.032ZM858.712 75.072C859.491 75.072 860.12 74.8 860.6 74.256C861.08 73.712 861.32 72.9973 861.32 72.112V68.688C861.32 67.8027 861.08 67.088 860.6 66.544C860.12 66 859.491 65.728 858.712 65.728H857.08C856.301 65.728 855.672 66 855.192 66.544C854.712 67.088 854.472 67.8027 854.472 68.688V72.112C854.472 72.9973 854.707 73.712 855.176 74.256C855.656 74.8 856.285 75.072 857.064 75.072H858.712ZM865.789 76C865.458 76 865.202 75.9093 865.021 75.728C864.839 75.5467 864.749 75.2907 864.749 74.96V64.8H869.389C870.178 64.8 870.871 64.9547 871.469 65.264C872.066 65.5627 872.53 65.9947 872.861 66.56C873.191 67.1147 873.357 67.7547 873.357 68.48V72C873.357 73.312 873.026 74.3093 872.365 74.992C871.703 75.664 870.733 76 869.453 76H865.789ZM869.421 74.944C870.327 74.944 871.01 74.6987 871.469 74.208C871.938 73.7067 872.173 72.9707 872.173 72V68.48C872.173 67.7013 871.911 67.072 871.389 66.592C870.877 66.1013 870.199 65.856 869.357 65.856H865.933V74.944H869.421ZM878.922 76.128C878.239 76.128 877.637 75.9787 877.114 75.68C876.591 75.3707 876.186 74.9387 875.898 74.384C875.61 73.8187 875.466 73.1733 875.466 72.448V64.8H876.65V72.48C876.65 73.2587 876.858 73.888 877.274 74.368C877.69 74.8373 878.239 75.072 878.922 75.072H880.65C881.333 75.072 881.882 74.8373 882.298 74.368C882.714 73.888 882.922 73.2587 882.922 72.48V64.8H884.106V72.448C884.106 73.1733 883.962 73.8187 883.674 74.384C883.386 74.9387 882.981 75.3707 882.458 75.68C881.935 75.9787 881.333 76.128 880.65 76.128H878.922ZM889.92 76.128C889.205 76.128 888.571 75.9573 888.016 75.616C887.472 75.2747 887.045 74.8 886.736 74.192C886.437 73.5733 886.288 72.864 886.288 72.064V68.736C886.288 67.936 886.437 67.2267 886.736 66.608C887.045 65.9893 887.477 65.5147 888.032 65.184C888.597 64.8427 889.248 64.672 889.984 64.672H891.68C892.373 64.672 892.981 64.8213 893.504 65.12C894.037 65.4187 894.448 65.84 894.736 66.384C895.035 66.928 895.184 67.552 895.184 68.256H894.032C894.032 67.4987 893.813 66.8907 893.376 66.432C892.949 65.9627 892.384 65.728 891.68 65.728H889.984C889.227 65.728 888.619 66.0053 888.16 66.56C887.701 67.104 887.472 67.8293 887.472 68.736V72.064C887.472 72.9707 887.696 73.7013 888.144 74.256C888.592 74.8 889.184 75.072 889.92 75.072H891.648C892.373 75.072 892.955 74.816 893.392 74.304C893.84 73.792 894.064 73.12 894.064 72.288H895.216C895.216 73.0453 895.067 73.7173 894.768 74.304C894.469 74.88 894.048 75.328 893.504 75.648C892.971 75.968 892.352 76.128 891.648 76.128H889.92ZM899.735 65.824H896.183V64.8H904.471V65.824H900.919V76H899.735V65.824ZM911.429 76C911.099 76 910.843 75.9093 910.661 75.728C910.48 75.5467 910.389 75.2907 910.389 74.96V64.8H915.029C915.819 64.8 916.512 64.9547 917.109 65.264C917.707 65.5627 918.171 65.9947 918.501 66.56C918.832 67.1147 918.997 67.7547 918.997 68.48V72C918.997 73.312 918.667 74.3093 918.005 74.992C917.344 75.664 916.373 76 915.093 76H911.429ZM915.061 74.944C915.968 74.944 916.651 74.6987 917.109 74.208C917.579 73.7067 917.813 72.9707 917.813 72V68.48C917.813 67.7013 917.552 67.072 917.029 66.592C916.517 66.1013 915.84 65.856 914.997 65.856H911.573V74.944H915.061ZM922.211 76C921.88 76 921.624 75.9093 921.443 75.728C921.261 75.536 921.171 75.2747 921.171 74.944V64.8H928.691V65.824H922.355V69.76H928.211V70.784H922.355V74.976H928.691V76H922.211ZM933.628 76.128C932.988 76.128 932.423 75.9947 931.932 75.728C931.442 75.4507 931.058 75.0667 930.78 74.576C930.514 74.0747 930.38 73.4987 930.38 72.848H931.532C931.532 73.5093 931.724 74.048 932.108 74.464C932.503 74.8693 933.02 75.072 933.66 75.072H935.436C936.066 75.072 936.572 74.9333 936.956 74.656C937.34 74.368 937.532 73.9947 937.532 73.536V72.512C937.532 72.1493 937.388 71.84 937.1 71.584C936.823 71.328 936.439 71.1627 935.948 71.088L933.068 70.608C932.258 70.4693 931.628 70.1813 931.18 69.744C930.732 69.3067 930.508 68.7573 930.508 68.096V67.232C930.508 66.4533 930.796 65.8347 931.372 65.376C931.959 64.9067 932.732 64.672 933.692 64.672H935.5C936.407 64.672 937.138 64.9493 937.692 65.504C938.247 66.048 938.524 66.768 938.524 67.664H937.372C937.372 67.0773 937.202 66.608 936.86 66.256C936.519 65.904 936.066 65.728 935.5 65.728H933.692C933.084 65.728 932.599 65.8667 932.236 66.144C931.874 66.4107 931.692 66.7733 931.692 67.232V68.096C931.692 68.4693 931.826 68.784 932.092 69.04C932.37 69.296 932.748 69.4667 933.228 69.552L936.092 70.048C936.924 70.1973 937.57 70.4853 938.028 70.912C938.487 71.328 938.716 71.8613 938.716 72.512V73.536C938.716 74.3147 938.418 74.944 937.82 75.424C937.223 75.8933 936.439 76.128 935.468 76.128H933.628ZM940.956 64.8H942.14V76H940.956V64.8ZM948.202 76.128C947.466 76.128 946.821 75.9627 946.266 75.632C945.722 75.2907 945.295 74.8107 944.986 74.192C944.687 73.5733 944.538 72.864 944.538 72.064V68.736C944.538 67.936 944.693 67.232 945.002 66.624C945.322 66.0053 945.765 65.5253 946.33 65.184C946.895 64.8427 947.546 64.672 948.282 64.672H949.978C950.682 64.672 951.301 64.8213 951.834 65.12C952.378 65.4187 952.799 65.84 953.098 66.384C953.397 66.928 953.546 67.552 953.546 68.256H952.394C952.394 67.4987 952.17 66.8907 951.722 66.432C951.285 65.9627 950.703 65.728 949.978 65.728H948.282C947.514 65.728 946.895 66.0053 946.426 66.56C945.957 67.104 945.722 67.8293 945.722 68.736V72.064C945.722 72.9707 945.946 73.7013 946.394 74.256C946.853 74.8 947.455 75.072 948.202 75.072H949.93C950.687 75.072 951.301 74.8107 951.77 74.288C952.239 73.7653 952.474 73.0773 952.474 72.224V71.264H949.37V70.224H953.626V72.224C953.626 72.992 953.471 73.6747 953.162 74.272C952.863 74.8587 952.431 75.3173 951.866 75.648C951.311 75.968 950.666 76.128 949.93 76.128H948.202ZM955.796 64.8H956.916L963.124 74.128V64.8H964.276V76H963.156L956.948 66.736V76H955.796V64.8Z" fill="#161513"/>
<path d="M988.832 74.944C988.832 74.3573 988.939 73.8507 989.152 73.424C989.365 72.9867 989.707 72.592 990.176 72.24L994.144 69.232C994.699 68.8267 994.976 68.336 994.976 67.76V67.248C994.976 66.7893 994.821 66.4213 994.512 66.144C994.203 65.8667 993.792 65.728 993.28 65.728H991.808C991.243 65.728 990.789 65.9253 990.448 66.32C990.117 66.704 989.952 67.2213 989.952 67.872H988.768C988.768 66.9013 989.04 66.128 989.584 65.552C990.139 64.9653 990.869 64.672 991.776 64.672H993.28C994.144 64.672 994.837 64.9067 995.36 65.376C995.893 65.8453 996.16 66.4693 996.16 67.248V67.76C996.16 68.656 995.733 69.4187 994.88 70.048L991.024 72.912C990.64 73.1893 990.373 73.4773 990.224 73.776C990.085 74.064 990.016 74.4533 990.016 74.944H996.32V76H988.832V74.944ZM1001.23 76.128C1000.59 76.128 1000.02 75.9787 999.515 75.68C999.024 75.3813 998.64 74.96 998.363 74.416C998.085 73.872 997.947 73.248 997.947 72.544V68.256C997.947 67.552 998.085 66.928 998.363 66.384C998.64 65.84 999.024 65.4187 999.515 65.12C1000.02 64.8213 1000.59 64.672 1001.23 64.672H1002.92C1003.56 64.672 1004.13 64.8213 1004.62 65.12C1005.11 65.4187 1005.49 65.84 1005.75 66.384C1006.03 66.928 1006.17 67.552 1006.17 68.256V72.544C1006.17 73.248 1006.03 73.872 1005.75 74.416C1005.49 74.96 1005.11 75.3813 1004.62 75.68C1004.13 75.9787 1003.56 76.128 1002.92 76.128H1001.23ZM1002.89 75.072C1003.52 75.072 1004.03 74.8427 1004.41 74.384C1004.79 73.9147 1004.99 73.3013 1004.99 72.544V68.256C1004.99 67.4987 1004.79 66.8907 1004.41 66.432C1004.03 65.9627 1003.52 65.728 1002.89 65.728H1001.26C1000.63 65.728 1000.12 65.9627 999.723 66.432C999.328 66.8907 999.131 67.4987 999.131 68.256V72.544C999.131 73.3013 999.328 73.9147 999.723 74.384C1000.12 74.8427 1000.63 75.072 1001.26 75.072H1002.89ZM1010.39 66.08L1007.81 67.376V66.256L1010.55 64.8H1011.57V76H1010.39V66.08ZM1019.18 73.696H1014.27C1013.96 73.696 1013.73 73.6427 1013.58 73.536C1013.44 73.4293 1013.37 73.2587 1013.37 73.024V72.704L1019.24 64.8H1020.36V72.64H1021.77V73.696H1020.36V76H1019.18V73.696ZM1019.21 72.64V66.56H1019.19L1014.68 72.64H1019.21Z" fill="#161513"/>
</svg>
